M48
;DRILL file {KiCad 4.0.2-stable} date 6/1/2017 8:35:34 PM
;FORMAT={3:3/ absolute / metric / suppress leading zeros}
FMAT,2
METRIC,TZ
T1C0.400
T2C1.000
T3C3.200
%
G90
G05
M71
T1
X101498Y-138227
X102413Y-110490
X104546Y-130861
X104546Y-137770
X105461Y-131242
X105461Y-138278
X105766Y-128059
X106223Y-133248
X106223Y-136652
X106934Y-117348
X107200Y-120244
X113132Y-122530
X113182Y-121412
X113233Y-117450
X113260Y-119828
X117230Y-117450
X117348Y-120548
X118364Y-123850
X121158Y-123088
T2
X110363Y-101854
X110363Y-104394
X110490Y-145440
X110490Y-147980
X112903Y-101854
X112903Y-104394
X113030Y-145440
X113030Y-147980
X115443Y-101854
X115443Y-104394
X115570Y-145440
X115570Y-147980
X117983Y-101854
X117983Y-104394
X118110Y-145440
X118110Y-147980
X120000Y-133000
X120000Y-135540
X120000Y-138080
X120000Y-140620
X120650Y-108077
X120650Y-110617
X120650Y-113157
X120650Y-115697
X122540Y-133000
X122540Y-135540
X122540Y-138080
X122540Y-140620
X123082Y-119634
X123082Y-122174
X123082Y-124714
X123082Y-127254
X123190Y-108077
X123190Y-110617
X123190Y-113157
X123190Y-115697
T3
X105000Y-104000
X105000Y-146000
T0
M30
