G04 #@! TF.FileFunction,Soldermask,Bot*
%FSLAX46Y46*%
G04 Gerber Fmt 4.6, Leading zero omitted, Abs format (unit mm)*
G04 Created by KiCad (PCBNEW 4.0.2-stable) date 6/1/2017 8:35:31 PM*
%MOMM*%
G01*
G04 APERTURE LIST*
%ADD10C,0.100000*%
%ADD11C,0.150000*%
%ADD12C,0.010000*%
%ADD13R,1.700000X1.700000*%
%ADD14O,1.700000X1.700000*%
%ADD15C,3.200000*%
G04 APERTURE END LIST*
D10*
D11*
X125000000Y-100000000D02*
X100000000Y-100000000D01*
X125000000Y-150000000D02*
X125000000Y-100000000D01*
X100000000Y-150000000D02*
X125000000Y-150000000D01*
X100000000Y-100000000D02*
X100000000Y-150000000D01*
D12*
G36*
X113774653Y-107340400D02*
X113229341Y-107340400D01*
X113428121Y-107541787D01*
X113757829Y-107904691D01*
X113972249Y-108178815D01*
X114050697Y-108282400D01*
X114145256Y-108402529D01*
X114245350Y-108526202D01*
X114340402Y-108640419D01*
X114419834Y-108732181D01*
X114444932Y-108759760D01*
X114526364Y-108847212D01*
X114456406Y-108938356D01*
X114320964Y-109127604D01*
X114233422Y-109267050D01*
X114178552Y-109349286D01*
X114117276Y-109428612D01*
X114112127Y-109434607D01*
X114043178Y-109517581D01*
X113962653Y-109620137D01*
X113879458Y-109730288D01*
X113802498Y-109836047D01*
X113740681Y-109925425D01*
X113705024Y-109982547D01*
X113669943Y-110035596D01*
X113611414Y-110114062D01*
X113539580Y-110205252D01*
X113464585Y-110296472D01*
X113396572Y-110375032D01*
X113360200Y-110414020D01*
X113336311Y-110440081D01*
X113294037Y-110487406D01*
X113285923Y-110496570D01*
X113224345Y-110566200D01*
X114350800Y-110566200D01*
X114350800Y-110487923D01*
X114367563Y-110411395D01*
X114414793Y-110306149D01*
X114487907Y-110180239D01*
X114582319Y-110041716D01*
X114669858Y-109927533D01*
X114741132Y-109835313D01*
X114806453Y-109744269D01*
X114853623Y-109671535D01*
X114859729Y-109660833D01*
X114899771Y-109594434D01*
X114935058Y-109546284D01*
X114943701Y-109537500D01*
X114978262Y-109498816D01*
X115018485Y-109442250D01*
X115056174Y-109394093D01*
X115086685Y-109372487D01*
X115087986Y-109372400D01*
X115096862Y-109397091D01*
X115103982Y-109468381D01*
X115109136Y-109582092D01*
X115112117Y-109734044D01*
X115112800Y-109868961D01*
X115112116Y-110048263D01*
X115109705Y-110184270D01*
X115105025Y-110284475D01*
X115097537Y-110356369D01*
X115086702Y-110407443D01*
X115071979Y-110445188D01*
X115071156Y-110446811D01*
X115035683Y-110506491D01*
X115004177Y-110544618D01*
X115001306Y-110546761D01*
X115016803Y-110552323D01*
X115076153Y-110557262D01*
X115172414Y-110561312D01*
X115298641Y-110564207D01*
X115447889Y-110565682D01*
X115499606Y-110565811D01*
X116026111Y-110566200D01*
X115996432Y-110496350D01*
X115968259Y-110437758D01*
X115946176Y-110402370D01*
X115942343Y-110373142D01*
X115938743Y-110297781D01*
X115935441Y-110180951D01*
X115932504Y-110027317D01*
X115930001Y-109841546D01*
X115927996Y-109628302D01*
X115926558Y-109392251D01*
X115925753Y-109138059D01*
X115925601Y-108966290D01*
X115925659Y-108662311D01*
X115925930Y-108404912D01*
X115926554Y-108189874D01*
X115927674Y-108012978D01*
X115929431Y-107870004D01*
X115931967Y-107756733D01*
X115935424Y-107668945D01*
X115939943Y-107602421D01*
X115945667Y-107552941D01*
X115952738Y-107516286D01*
X115961296Y-107488237D01*
X115971484Y-107464574D01*
X115976401Y-107454699D01*
X116007156Y-107392869D01*
X116025210Y-107353660D01*
X116027201Y-107347729D01*
X116003065Y-107345507D01*
X115935712Y-107343556D01*
X115832728Y-107341984D01*
X115701694Y-107340901D01*
X115550195Y-107340415D01*
X115516483Y-107340400D01*
X115343340Y-107340664D01*
X115214771Y-107341831D01*
X115124554Y-107344464D01*
X115066463Y-107349123D01*
X115034276Y-107356372D01*
X115021768Y-107366772D01*
X115022714Y-107380885D01*
X115024236Y-107384850D01*
X115057595Y-107473673D01*
X115081661Y-107562181D01*
X115097820Y-107661141D01*
X115107458Y-107781321D01*
X115111960Y-107933488D01*
X115112800Y-108073088D01*
X115112801Y-108492904D01*
X115036601Y-108419900D01*
X114988987Y-108369557D01*
X114962406Y-108332278D01*
X114960400Y-108325483D01*
X114945263Y-108299550D01*
X114905772Y-108246128D01*
X114850812Y-108176145D01*
X114789268Y-108100529D01*
X114730023Y-108030209D01*
X114681961Y-107976114D01*
X114655161Y-107950000D01*
X114632839Y-107922734D01*
X114594464Y-107866630D01*
X114566598Y-107823000D01*
X114508395Y-107735298D01*
X114445449Y-107648698D01*
X114423101Y-107620362D01*
X114378387Y-107553736D01*
X114352992Y-107492643D01*
X114350800Y-107476390D01*
X114350278Y-107432677D01*
X114344609Y-107399502D01*
X114327638Y-107375412D01*
X114293211Y-107358955D01*
X114235174Y-107348677D01*
X114147372Y-107343127D01*
X114023650Y-107340851D01*
X113857855Y-107340396D01*
X113774653Y-107340400D01*
X113774653Y-107340400D01*
G37*
X113774653Y-107340400D02*
X113229341Y-107340400D01*
X113428121Y-107541787D01*
X113757829Y-107904691D01*
X113972249Y-108178815D01*
X114050697Y-108282400D01*
X114145256Y-108402529D01*
X114245350Y-108526202D01*
X114340402Y-108640419D01*
X114419834Y-108732181D01*
X114444932Y-108759760D01*
X114526364Y-108847212D01*
X114456406Y-108938356D01*
X114320964Y-109127604D01*
X114233422Y-109267050D01*
X114178552Y-109349286D01*
X114117276Y-109428612D01*
X114112127Y-109434607D01*
X114043178Y-109517581D01*
X113962653Y-109620137D01*
X113879458Y-109730288D01*
X113802498Y-109836047D01*
X113740681Y-109925425D01*
X113705024Y-109982547D01*
X113669943Y-110035596D01*
X113611414Y-110114062D01*
X113539580Y-110205252D01*
X113464585Y-110296472D01*
X113396572Y-110375032D01*
X113360200Y-110414020D01*
X113336311Y-110440081D01*
X113294037Y-110487406D01*
X113285923Y-110496570D01*
X113224345Y-110566200D01*
X114350800Y-110566200D01*
X114350800Y-110487923D01*
X114367563Y-110411395D01*
X114414793Y-110306149D01*
X114487907Y-110180239D01*
X114582319Y-110041716D01*
X114669858Y-109927533D01*
X114741132Y-109835313D01*
X114806453Y-109744269D01*
X114853623Y-109671535D01*
X114859729Y-109660833D01*
X114899771Y-109594434D01*
X114935058Y-109546284D01*
X114943701Y-109537500D01*
X114978262Y-109498816D01*
X115018485Y-109442250D01*
X115056174Y-109394093D01*
X115086685Y-109372487D01*
X115087986Y-109372400D01*
X115096862Y-109397091D01*
X115103982Y-109468381D01*
X115109136Y-109582092D01*
X115112117Y-109734044D01*
X115112800Y-109868961D01*
X115112116Y-110048263D01*
X115109705Y-110184270D01*
X115105025Y-110284475D01*
X115097537Y-110356369D01*
X115086702Y-110407443D01*
X115071979Y-110445188D01*
X115071156Y-110446811D01*
X115035683Y-110506491D01*
X115004177Y-110544618D01*
X115001306Y-110546761D01*
X115016803Y-110552323D01*
X115076153Y-110557262D01*
X115172414Y-110561312D01*
X115298641Y-110564207D01*
X115447889Y-110565682D01*
X115499606Y-110565811D01*
X116026111Y-110566200D01*
X115996432Y-110496350D01*
X115968259Y-110437758D01*
X115946176Y-110402370D01*
X115942343Y-110373142D01*
X115938743Y-110297781D01*
X115935441Y-110180951D01*
X115932504Y-110027317D01*
X115930001Y-109841546D01*
X115927996Y-109628302D01*
X115926558Y-109392251D01*
X115925753Y-109138059D01*
X115925601Y-108966290D01*
X115925659Y-108662311D01*
X115925930Y-108404912D01*
X115926554Y-108189874D01*
X115927674Y-108012978D01*
X115929431Y-107870004D01*
X115931967Y-107756733D01*
X115935424Y-107668945D01*
X115939943Y-107602421D01*
X115945667Y-107552941D01*
X115952738Y-107516286D01*
X115961296Y-107488237D01*
X115971484Y-107464574D01*
X115976401Y-107454699D01*
X116007156Y-107392869D01*
X116025210Y-107353660D01*
X116027201Y-107347729D01*
X116003065Y-107345507D01*
X115935712Y-107343556D01*
X115832728Y-107341984D01*
X115701694Y-107340901D01*
X115550195Y-107340415D01*
X115516483Y-107340400D01*
X115343340Y-107340664D01*
X115214771Y-107341831D01*
X115124554Y-107344464D01*
X115066463Y-107349123D01*
X115034276Y-107356372D01*
X115021768Y-107366772D01*
X115022714Y-107380885D01*
X115024236Y-107384850D01*
X115057595Y-107473673D01*
X115081661Y-107562181D01*
X115097820Y-107661141D01*
X115107458Y-107781321D01*
X115111960Y-107933488D01*
X115112800Y-108073088D01*
X115112801Y-108492904D01*
X115036601Y-108419900D01*
X114988987Y-108369557D01*
X114962406Y-108332278D01*
X114960400Y-108325483D01*
X114945263Y-108299550D01*
X114905772Y-108246128D01*
X114850812Y-108176145D01*
X114789268Y-108100529D01*
X114730023Y-108030209D01*
X114681961Y-107976114D01*
X114655161Y-107950000D01*
X114632839Y-107922734D01*
X114594464Y-107866630D01*
X114566598Y-107823000D01*
X114508395Y-107735298D01*
X114445449Y-107648698D01*
X114423101Y-107620362D01*
X114378387Y-107553736D01*
X114352992Y-107492643D01*
X114350800Y-107476390D01*
X114350278Y-107432677D01*
X114344609Y-107399502D01*
X114327638Y-107375412D01*
X114293211Y-107358955D01*
X114235174Y-107348677D01*
X114147372Y-107343127D01*
X114023650Y-107340851D01*
X113857855Y-107340396D01*
X113774653Y-107340400D01*
G36*
X112191800Y-109304045D02*
X112191579Y-109575528D01*
X112190817Y-109800618D01*
X112189374Y-109983721D01*
X112187106Y-110129240D01*
X112183869Y-110241583D01*
X112179522Y-110325155D01*
X112173920Y-110384359D01*
X112166922Y-110423603D01*
X112158384Y-110447292D01*
X112154508Y-110453395D01*
X112128222Y-110490943D01*
X112117509Y-110519085D01*
X112127690Y-110539174D01*
X112164088Y-110552563D01*
X112232024Y-110560605D01*
X112336822Y-110564653D01*
X112483802Y-110566060D01*
X112598200Y-110566200D01*
X112748482Y-110565515D01*
X112879673Y-110563608D01*
X112983973Y-110560702D01*
X113053581Y-110557017D01*
X113080695Y-110552776D01*
X113080800Y-110552488D01*
X113070245Y-110523454D01*
X113043674Y-110466509D01*
X113030000Y-110439200D01*
X113017134Y-110411760D01*
X113006641Y-110381394D01*
X112998280Y-110342920D01*
X112991809Y-110291155D01*
X112986989Y-110220918D01*
X112983578Y-110127027D01*
X112981335Y-110004301D01*
X112980019Y-109847559D01*
X112979390Y-109651617D01*
X112979205Y-109411296D01*
X112979200Y-109346750D01*
X112979453Y-109089269D01*
X112980329Y-108877749D01*
X112982004Y-108707351D01*
X112984652Y-108573238D01*
X112988450Y-108470571D01*
X112993573Y-108394513D01*
X113000197Y-108340226D01*
X113008497Y-108302872D01*
X113017953Y-108278938D01*
X113056705Y-108204000D01*
X112191800Y-108204000D01*
X112191800Y-109304045D01*
X112191800Y-109304045D01*
G37*
X112191800Y-109304045D02*
X112191579Y-109575528D01*
X112190817Y-109800618D01*
X112189374Y-109983721D01*
X112187106Y-110129240D01*
X112183869Y-110241583D01*
X112179522Y-110325155D01*
X112173920Y-110384359D01*
X112166922Y-110423603D01*
X112158384Y-110447292D01*
X112154508Y-110453395D01*
X112128222Y-110490943D01*
X112117509Y-110519085D01*
X112127690Y-110539174D01*
X112164088Y-110552563D01*
X112232024Y-110560605D01*
X112336822Y-110564653D01*
X112483802Y-110566060D01*
X112598200Y-110566200D01*
X112748482Y-110565515D01*
X112879673Y-110563608D01*
X112983973Y-110560702D01*
X113053581Y-110557017D01*
X113080695Y-110552776D01*
X113080800Y-110552488D01*
X113070245Y-110523454D01*
X113043674Y-110466509D01*
X113030000Y-110439200D01*
X113017134Y-110411760D01*
X113006641Y-110381394D01*
X112998280Y-110342920D01*
X112991809Y-110291155D01*
X112986989Y-110220918D01*
X112983578Y-110127027D01*
X112981335Y-110004301D01*
X112980019Y-109847559D01*
X112979390Y-109651617D01*
X112979205Y-109411296D01*
X112979200Y-109346750D01*
X112979453Y-109089269D01*
X112980329Y-108877749D01*
X112982004Y-108707351D01*
X112984652Y-108573238D01*
X112988450Y-108470571D01*
X112993573Y-108394513D01*
X113000197Y-108340226D01*
X113008497Y-108302872D01*
X113017953Y-108278938D01*
X113056705Y-108204000D01*
X112191800Y-108204000D01*
X112191800Y-109304045D01*
G36*
X112432459Y-106437960D02*
X112314855Y-106504395D01*
X112221377Y-106607045D01*
X112177588Y-106693124D01*
X112146978Y-106831614D01*
X112156079Y-106969591D01*
X112203427Y-107091084D01*
X112215812Y-107109850D01*
X112306251Y-107197408D01*
X112425129Y-107257553D01*
X112558067Y-107287418D01*
X112690687Y-107284134D01*
X112808610Y-107244832D01*
X112829394Y-107232244D01*
X112911663Y-107153394D01*
X112979486Y-107044770D01*
X113021653Y-106927295D01*
X113030000Y-106857799D01*
X113010726Y-106748575D01*
X112960210Y-106634110D01*
X112889418Y-106535158D01*
X112833758Y-106486295D01*
X112701539Y-106425876D01*
X112564563Y-106410776D01*
X112432459Y-106437960D01*
X112432459Y-106437960D01*
G37*
X112432459Y-106437960D02*
X112314855Y-106504395D01*
X112221377Y-106607045D01*
X112177588Y-106693124D01*
X112146978Y-106831614D01*
X112156079Y-106969591D01*
X112203427Y-107091084D01*
X112215812Y-107109850D01*
X112306251Y-107197408D01*
X112425129Y-107257553D01*
X112558067Y-107287418D01*
X112690687Y-107284134D01*
X112808610Y-107244832D01*
X112829394Y-107232244D01*
X112911663Y-107153394D01*
X112979486Y-107044770D01*
X113021653Y-106927295D01*
X113030000Y-106857799D01*
X113010726Y-106748575D01*
X112960210Y-106634110D01*
X112889418Y-106535158D01*
X112833758Y-106486295D01*
X112701539Y-106425876D01*
X112564563Y-106410776D01*
X112432459Y-106437960D01*
D13*
X110363000Y-104394000D03*
D14*
X110363000Y-101854000D03*
X112903000Y-104394000D03*
X112903000Y-101854000D03*
X115443000Y-104394000D03*
X115443000Y-101854000D03*
X117983000Y-104394000D03*
X117983000Y-101854000D03*
D13*
X120650000Y-108077000D03*
D14*
X123190000Y-108077000D03*
X120650000Y-110617000D03*
X123190000Y-110617000D03*
X120650000Y-113157000D03*
X123190000Y-113157000D03*
X120650000Y-115697000D03*
X123190000Y-115697000D03*
D13*
X120000000Y-133000000D03*
D14*
X122540000Y-133000000D03*
X120000000Y-135540000D03*
X122540000Y-135540000D03*
X120000000Y-138080000D03*
X122540000Y-138080000D03*
X120000000Y-140620000D03*
X122540000Y-140620000D03*
D13*
X118110000Y-145440400D03*
D14*
X118110000Y-147980400D03*
X115570000Y-145440400D03*
X115570000Y-147980400D03*
X113030000Y-145440400D03*
X113030000Y-147980400D03*
X110490000Y-145440400D03*
X110490000Y-147980400D03*
D13*
X123082000Y-119634000D03*
D14*
X123082000Y-122174000D03*
X123082000Y-124714000D03*
X123082000Y-127254000D03*
D15*
X105000000Y-104000000D03*
X105000000Y-146000000D03*
M02*
