G04 #@! TF.FileFunction,Legend,Top*
%FSLAX46Y46*%
G04 Gerber Fmt 4.6, Leading zero omitted, Abs format (unit mm)*
G04 Created by KiCad (PCBNEW 4.0.2-stable) date 6/1/2017 8:35:31 PM*
%MOMM*%
G01*
G04 APERTURE LIST*
%ADD10C,0.100000*%
%ADD11C,0.300000*%
%ADD12C,0.150000*%
%ADD13C,0.120000*%
G04 APERTURE END LIST*
D10*
D11*
X108552173Y-108846457D02*
X108766459Y-108917886D01*
X108837887Y-108989314D01*
X108909316Y-109132171D01*
X108909316Y-109346457D01*
X108837887Y-109489314D01*
X108766459Y-109560743D01*
X108623601Y-109632171D01*
X108052173Y-109632171D01*
X108052173Y-108132171D01*
X108552173Y-108132171D01*
X108695030Y-108203600D01*
X108766459Y-108275029D01*
X108837887Y-108417886D01*
X108837887Y-108560743D01*
X108766459Y-108703600D01*
X108695030Y-108775029D01*
X108552173Y-108846457D01*
X108052173Y-108846457D01*
X109552173Y-109632171D02*
X109552173Y-108132171D01*
X110409316Y-109632171D02*
X109766459Y-108775029D01*
X110409316Y-108132171D02*
X109552173Y-108989314D01*
X110980744Y-108275029D02*
X111052173Y-108203600D01*
X111195030Y-108132171D01*
X111552173Y-108132171D01*
X111695030Y-108203600D01*
X111766459Y-108275029D01*
X111837887Y-108417886D01*
X111837887Y-108560743D01*
X111766459Y-108775029D01*
X110909316Y-109632171D01*
X111837887Y-109632171D01*
X112766458Y-108132171D02*
X112909315Y-108132171D01*
X113052172Y-108203600D01*
X113123601Y-108275029D01*
X113195030Y-108417886D01*
X113266458Y-108703600D01*
X113266458Y-109060743D01*
X113195030Y-109346457D01*
X113123601Y-109489314D01*
X113052172Y-109560743D01*
X112909315Y-109632171D01*
X112766458Y-109632171D01*
X112623601Y-109560743D01*
X112552172Y-109489314D01*
X112480744Y-109346457D01*
X112409315Y-109060743D01*
X112409315Y-108703600D01*
X112480744Y-108417886D01*
X112552172Y-108275029D01*
X112623601Y-108203600D01*
X112766458Y-108132171D01*
X114695029Y-109632171D02*
X113837886Y-109632171D01*
X114266458Y-109632171D02*
X114266458Y-108132171D01*
X114123601Y-108346457D01*
X113980743Y-108489314D01*
X113837886Y-108560743D01*
X115195029Y-108132171D02*
X116195029Y-108132171D01*
X115552172Y-109632171D01*
X107980743Y-112032171D02*
X107123600Y-112032171D01*
X107552172Y-112032171D02*
X107552172Y-110532171D01*
X107409315Y-110746457D01*
X107266457Y-110889314D01*
X107123600Y-110960743D01*
X109266457Y-110532171D02*
X108980743Y-110532171D01*
X108837886Y-110603600D01*
X108766457Y-110675029D01*
X108623600Y-110889314D01*
X108552171Y-111175029D01*
X108552171Y-111746457D01*
X108623600Y-111889314D01*
X108695028Y-111960743D01*
X108837886Y-112032171D01*
X109123600Y-112032171D01*
X109266457Y-111960743D01*
X109337886Y-111889314D01*
X109409314Y-111746457D01*
X109409314Y-111389314D01*
X109337886Y-111246457D01*
X109266457Y-111175029D01*
X109123600Y-111103600D01*
X108837886Y-111103600D01*
X108695028Y-111175029D01*
X108623600Y-111246457D01*
X108552171Y-111389314D01*
X110695028Y-111960743D02*
X110552171Y-112032171D01*
X110266457Y-112032171D01*
X110123599Y-111960743D01*
X110052171Y-111889314D01*
X109980742Y-111746457D01*
X109980742Y-111317886D01*
X110052171Y-111175029D01*
X110123599Y-111103600D01*
X110266457Y-111032171D01*
X110552171Y-111032171D01*
X110695028Y-111103600D01*
X111337885Y-112032171D02*
X111337885Y-110532171D01*
X111980742Y-112032171D02*
X111980742Y-111246457D01*
X111909313Y-111103600D01*
X111766456Y-111032171D01*
X111552171Y-111032171D01*
X111409313Y-111103600D01*
X111337885Y-111175029D01*
X113837885Y-112032171D02*
X113837885Y-110532171D01*
X114409313Y-110532171D01*
X114552171Y-110603600D01*
X114623599Y-110675029D01*
X114695028Y-110817886D01*
X114695028Y-111032171D01*
X114623599Y-111175029D01*
X114552171Y-111246457D01*
X114409313Y-111317886D01*
X113837885Y-111317886D01*
X115195028Y-110532171D02*
X115552171Y-112032171D01*
X115837885Y-110960743D01*
X116123599Y-112032171D01*
X116480742Y-110532171D01*
X117052171Y-112032171D02*
X117052171Y-110532171D01*
X117552171Y-111603600D01*
X118052171Y-110532171D01*
X118052171Y-112032171D01*
X110337886Y-112932171D02*
X110837886Y-114432171D01*
X111337886Y-112932171D01*
X112623600Y-114432171D02*
X111766457Y-114432171D01*
X112195029Y-114432171D02*
X112195029Y-112932171D01*
X112052172Y-113146457D01*
X111909314Y-113289314D01*
X111766457Y-113360743D01*
X113266457Y-114289314D02*
X113337885Y-114360743D01*
X113266457Y-114432171D01*
X113195028Y-114360743D01*
X113266457Y-114289314D01*
X113266457Y-114432171D01*
X114266457Y-112932171D02*
X114409314Y-112932171D01*
X114552171Y-113003600D01*
X114623600Y-113075029D01*
X114695029Y-113217886D01*
X114766457Y-113503600D01*
X114766457Y-113860743D01*
X114695029Y-114146457D01*
X114623600Y-114289314D01*
X114552171Y-114360743D01*
X114409314Y-114432171D01*
X114266457Y-114432171D01*
X114123600Y-114360743D01*
X114052171Y-114289314D01*
X113980743Y-114146457D01*
X113909314Y-113860743D01*
X113909314Y-113503600D01*
X113980743Y-113217886D01*
X114052171Y-113075029D01*
X114123600Y-113003600D01*
X114266457Y-112932171D01*
D12*
X125000000Y-100000000D02*
X100000000Y-100000000D01*
X125000000Y-150000000D02*
X125000000Y-100000000D01*
X100000000Y-150000000D02*
X125000000Y-150000000D01*
X100000000Y-100000000D02*
X100000000Y-150000000D01*
D13*
X115730400Y-116599600D02*
X114730400Y-116599600D01*
X114730400Y-118299600D02*
X115730400Y-118299600D01*
X120095200Y-120837200D02*
X120095200Y-118837200D01*
X118055200Y-118837200D02*
X118055200Y-120837200D01*
X103063600Y-117008800D02*
X101863600Y-117008800D01*
X101863600Y-115248800D02*
X103063600Y-115248800D01*
X103063600Y-118888400D02*
X101863600Y-118888400D01*
X101863600Y-117128400D02*
X103063600Y-117128400D01*
X103063600Y-120768000D02*
X101863600Y-120768000D01*
X101863600Y-119008000D02*
X103063600Y-119008000D01*
X103063600Y-122596800D02*
X101863600Y-122596800D01*
X101863600Y-120836800D02*
X103063600Y-120836800D01*
X101878800Y-111489600D02*
X103078800Y-111489600D01*
X103078800Y-113249600D02*
X101878800Y-113249600D01*
X101863600Y-107730400D02*
X103063600Y-107730400D01*
X103063600Y-109490400D02*
X101863600Y-109490400D01*
X101863600Y-109610000D02*
X103063600Y-109610000D01*
X103063600Y-111370000D02*
X101863600Y-111370000D01*
X101863600Y-113369200D02*
X103063600Y-113369200D01*
X103063600Y-115129200D02*
X101863600Y-115129200D01*
X103063600Y-124425600D02*
X101863600Y-124425600D01*
X101863600Y-122665600D02*
X103063600Y-122665600D01*
X103063600Y-126254400D02*
X101863600Y-126254400D01*
X101863600Y-124494400D02*
X103063600Y-124494400D01*
X103063600Y-128083200D02*
X101863600Y-128083200D01*
X101863600Y-126323200D02*
X103063600Y-126323200D01*
X103063600Y-129912000D02*
X101863600Y-129912000D01*
X101863600Y-128152000D02*
X103063600Y-128152000D01*
X114665200Y-128101200D02*
X115865200Y-128101200D01*
X115865200Y-129861200D02*
X114665200Y-129861200D01*
X114665200Y-126221600D02*
X115865200Y-126221600D01*
X115865200Y-127981600D02*
X114665200Y-127981600D01*
X114665200Y-124342000D02*
X115865200Y-124342000D01*
X115865200Y-126102000D02*
X114665200Y-126102000D01*
X114665200Y-122462400D02*
X115865200Y-122462400D01*
X115865200Y-124222400D02*
X114665200Y-124222400D01*
X119414400Y-127549200D02*
X119414400Y-126349200D01*
X121174400Y-126349200D02*
X121174400Y-127549200D01*
X115865200Y-120310800D02*
X114665200Y-120310800D01*
X114665200Y-118550800D02*
X115865200Y-118550800D01*
X115865200Y-122292000D02*
X114665200Y-122292000D01*
X114665200Y-120532000D02*
X115865200Y-120532000D01*
X103063600Y-137278000D02*
X101863600Y-137278000D01*
X101863600Y-135518000D02*
X103063600Y-135518000D01*
X103063600Y-135398400D02*
X101863600Y-135398400D01*
X101863600Y-133638400D02*
X103063600Y-133638400D01*
X103063600Y-133569600D02*
X101863600Y-133569600D01*
X101863600Y-131809600D02*
X103063600Y-131809600D01*
X103063600Y-131740800D02*
X101863600Y-131740800D01*
X101863600Y-129980800D02*
X103063600Y-129980800D01*
D12*
X106675000Y-118025000D02*
X106675000Y-118250000D01*
X111325000Y-118025000D02*
X111325000Y-118350000D01*
X111325000Y-127975000D02*
X111325000Y-127650000D01*
X106675000Y-127975000D02*
X106675000Y-127650000D01*
X106675000Y-118025000D02*
X111325000Y-118025000D01*
X106675000Y-127975000D02*
X111325000Y-127975000D01*
X106675000Y-118250000D02*
X105600000Y-118250000D01*
D13*
X119064000Y-124742800D02*
X117664000Y-124742800D01*
X117664000Y-124742800D02*
X117664000Y-127542800D01*
X119064000Y-124742800D02*
X119064000Y-127542800D01*
X111633000Y-105724000D02*
X119313000Y-105724000D01*
X119313000Y-105724000D02*
X119313000Y-100524000D01*
X119313000Y-100524000D02*
X109033000Y-100524000D01*
X109033000Y-100524000D02*
X109033000Y-103124000D01*
X109033000Y-103124000D02*
X111633000Y-103124000D01*
X111633000Y-103124000D02*
X111633000Y-105724000D01*
X110363000Y-105724000D02*
X109033000Y-105724000D01*
X109033000Y-105724000D02*
X109033000Y-104394000D01*
X119320000Y-109347000D02*
X119320000Y-117027000D01*
X119320000Y-117027000D02*
X124520000Y-117027000D01*
X124520000Y-117027000D02*
X124520000Y-106747000D01*
X124520000Y-106747000D02*
X121920000Y-106747000D01*
X121920000Y-106747000D02*
X121920000Y-109347000D01*
X121920000Y-109347000D02*
X119320000Y-109347000D01*
X119320000Y-108077000D02*
X119320000Y-106747000D01*
X119320000Y-106747000D02*
X120650000Y-106747000D01*
X118670000Y-134270000D02*
X118670000Y-141950000D01*
X118670000Y-141950000D02*
X123870000Y-141950000D01*
X123870000Y-141950000D02*
X123870000Y-131670000D01*
X123870000Y-131670000D02*
X121270000Y-131670000D01*
X121270000Y-131670000D02*
X121270000Y-134270000D01*
X121270000Y-134270000D02*
X118670000Y-134270000D01*
X118670000Y-133000000D02*
X118670000Y-131670000D01*
X118670000Y-131670000D02*
X120000000Y-131670000D01*
X116840000Y-144110400D02*
X109160000Y-144110400D01*
X109160000Y-144110400D02*
X109160000Y-149310400D01*
X109160000Y-149310400D02*
X119440000Y-149310400D01*
X119440000Y-149310400D02*
X119440000Y-146710400D01*
X119440000Y-146710400D02*
X116840000Y-146710400D01*
X116840000Y-146710400D02*
X116840000Y-144110400D01*
X118110000Y-144110400D02*
X119440000Y-144110400D01*
X119440000Y-144110400D02*
X119440000Y-145440400D01*
X121752000Y-120904000D02*
X121752000Y-128584000D01*
X121752000Y-128584000D02*
X124412000Y-128584000D01*
X124412000Y-128584000D02*
X124412000Y-120904000D01*
X124412000Y-120904000D02*
X121752000Y-120904000D01*
X121752000Y-119634000D02*
X121752000Y-118304000D01*
X121752000Y-118304000D02*
X123082000Y-118304000D01*
D12*
X115149334Y-116231943D02*
X115101715Y-116279562D01*
X114958858Y-116327181D01*
X114863620Y-116327181D01*
X114720762Y-116279562D01*
X114625524Y-116184324D01*
X114577905Y-116089086D01*
X114530286Y-115898610D01*
X114530286Y-115755752D01*
X114577905Y-115565276D01*
X114625524Y-115470038D01*
X114720762Y-115374800D01*
X114863620Y-115327181D01*
X114958858Y-115327181D01*
X115101715Y-115374800D01*
X115149334Y-115422419D01*
X116101715Y-116327181D02*
X115530286Y-116327181D01*
X115816000Y-116327181D02*
X115816000Y-115327181D01*
X115720762Y-115470038D01*
X115625524Y-115565276D01*
X115530286Y-115612895D01*
X121261143Y-120410266D02*
X121308762Y-120457885D01*
X121356381Y-120600742D01*
X121356381Y-120695980D01*
X121308762Y-120838838D01*
X121213524Y-120934076D01*
X121118286Y-120981695D01*
X120927810Y-121029314D01*
X120784952Y-121029314D01*
X120594476Y-120981695D01*
X120499238Y-120934076D01*
X120404000Y-120838838D01*
X120356381Y-120695980D01*
X120356381Y-120600742D01*
X120404000Y-120457885D01*
X120451619Y-120410266D01*
X120451619Y-120029314D02*
X120404000Y-119981695D01*
X120356381Y-119886457D01*
X120356381Y-119648361D01*
X120404000Y-119553123D01*
X120451619Y-119505504D01*
X120546857Y-119457885D01*
X120642095Y-119457885D01*
X120784952Y-119505504D01*
X121356381Y-120076933D01*
X121356381Y-119457885D01*
X105201981Y-116346266D02*
X104725790Y-116679600D01*
X105201981Y-116917695D02*
X104201981Y-116917695D01*
X104201981Y-116536742D01*
X104249600Y-116441504D01*
X104297219Y-116393885D01*
X104392457Y-116346266D01*
X104535314Y-116346266D01*
X104630552Y-116393885D01*
X104678171Y-116441504D01*
X104725790Y-116536742D01*
X104725790Y-116917695D01*
X105201981Y-115393885D02*
X105201981Y-115965314D01*
X105201981Y-115679600D02*
X104201981Y-115679600D01*
X104344838Y-115774838D01*
X104440076Y-115870076D01*
X104487695Y-115965314D01*
X105201981Y-118225866D02*
X104725790Y-118559200D01*
X105201981Y-118797295D02*
X104201981Y-118797295D01*
X104201981Y-118416342D01*
X104249600Y-118321104D01*
X104297219Y-118273485D01*
X104392457Y-118225866D01*
X104535314Y-118225866D01*
X104630552Y-118273485D01*
X104678171Y-118321104D01*
X104725790Y-118416342D01*
X104725790Y-118797295D01*
X104297219Y-117844914D02*
X104249600Y-117797295D01*
X104201981Y-117702057D01*
X104201981Y-117463961D01*
X104249600Y-117368723D01*
X104297219Y-117321104D01*
X104392457Y-117273485D01*
X104487695Y-117273485D01*
X104630552Y-117321104D01*
X105201981Y-117892533D01*
X105201981Y-117273485D01*
X105201981Y-120156266D02*
X104725790Y-120489600D01*
X105201981Y-120727695D02*
X104201981Y-120727695D01*
X104201981Y-120346742D01*
X104249600Y-120251504D01*
X104297219Y-120203885D01*
X104392457Y-120156266D01*
X104535314Y-120156266D01*
X104630552Y-120203885D01*
X104678171Y-120251504D01*
X104725790Y-120346742D01*
X104725790Y-120727695D01*
X104201981Y-119822933D02*
X104201981Y-119203885D01*
X104582933Y-119537219D01*
X104582933Y-119394361D01*
X104630552Y-119299123D01*
X104678171Y-119251504D01*
X104773410Y-119203885D01*
X105011505Y-119203885D01*
X105106743Y-119251504D01*
X105154362Y-119299123D01*
X105201981Y-119394361D01*
X105201981Y-119680076D01*
X105154362Y-119775314D01*
X105106743Y-119822933D01*
X105201981Y-122035866D02*
X104725790Y-122369200D01*
X105201981Y-122607295D02*
X104201981Y-122607295D01*
X104201981Y-122226342D01*
X104249600Y-122131104D01*
X104297219Y-122083485D01*
X104392457Y-122035866D01*
X104535314Y-122035866D01*
X104630552Y-122083485D01*
X104678171Y-122131104D01*
X104725790Y-122226342D01*
X104725790Y-122607295D01*
X104535314Y-121178723D02*
X105201981Y-121178723D01*
X104154362Y-121416819D02*
X104868648Y-121654914D01*
X104868648Y-121035866D01*
X104836934Y-112872781D02*
X104503600Y-112396590D01*
X104265505Y-112872781D02*
X104265505Y-111872781D01*
X104646458Y-111872781D01*
X104741696Y-111920400D01*
X104789315Y-111968019D01*
X104836934Y-112063257D01*
X104836934Y-112206114D01*
X104789315Y-112301352D01*
X104741696Y-112348971D01*
X104646458Y-112396590D01*
X104265505Y-112396590D01*
X105741696Y-111872781D02*
X105265505Y-111872781D01*
X105217886Y-112348971D01*
X105265505Y-112301352D01*
X105360743Y-112253733D01*
X105598839Y-112253733D01*
X105694077Y-112301352D01*
X105741696Y-112348971D01*
X105789315Y-112444210D01*
X105789315Y-112682305D01*
X105741696Y-112777543D01*
X105694077Y-112825162D01*
X105598839Y-112872781D01*
X105360743Y-112872781D01*
X105265505Y-112825162D01*
X105217886Y-112777543D01*
X104836934Y-109062781D02*
X104503600Y-108586590D01*
X104265505Y-109062781D02*
X104265505Y-108062781D01*
X104646458Y-108062781D01*
X104741696Y-108110400D01*
X104789315Y-108158019D01*
X104836934Y-108253257D01*
X104836934Y-108396114D01*
X104789315Y-108491352D01*
X104741696Y-108538971D01*
X104646458Y-108586590D01*
X104265505Y-108586590D01*
X105694077Y-108062781D02*
X105503600Y-108062781D01*
X105408362Y-108110400D01*
X105360743Y-108158019D01*
X105265505Y-108300876D01*
X105217886Y-108491352D01*
X105217886Y-108872305D01*
X105265505Y-108967543D01*
X105313124Y-109015162D01*
X105408362Y-109062781D01*
X105598839Y-109062781D01*
X105694077Y-109015162D01*
X105741696Y-108967543D01*
X105789315Y-108872305D01*
X105789315Y-108634210D01*
X105741696Y-108538971D01*
X105694077Y-108491352D01*
X105598839Y-108443733D01*
X105408362Y-108443733D01*
X105313124Y-108491352D01*
X105265505Y-108538971D01*
X105217886Y-108634210D01*
X104836934Y-110993181D02*
X104503600Y-110516990D01*
X104265505Y-110993181D02*
X104265505Y-109993181D01*
X104646458Y-109993181D01*
X104741696Y-110040800D01*
X104789315Y-110088419D01*
X104836934Y-110183657D01*
X104836934Y-110326514D01*
X104789315Y-110421752D01*
X104741696Y-110469371D01*
X104646458Y-110516990D01*
X104265505Y-110516990D01*
X105170267Y-109993181D02*
X105836934Y-109993181D01*
X105408362Y-110993181D01*
X104836934Y-114701581D02*
X104503600Y-114225390D01*
X104265505Y-114701581D02*
X104265505Y-113701581D01*
X104646458Y-113701581D01*
X104741696Y-113749200D01*
X104789315Y-113796819D01*
X104836934Y-113892057D01*
X104836934Y-114034914D01*
X104789315Y-114130152D01*
X104741696Y-114177771D01*
X104646458Y-114225390D01*
X104265505Y-114225390D01*
X105408362Y-114130152D02*
X105313124Y-114082533D01*
X105265505Y-114034914D01*
X105217886Y-113939676D01*
X105217886Y-113892057D01*
X105265505Y-113796819D01*
X105313124Y-113749200D01*
X105408362Y-113701581D01*
X105598839Y-113701581D01*
X105694077Y-113749200D01*
X105741696Y-113796819D01*
X105789315Y-113892057D01*
X105789315Y-113939676D01*
X105741696Y-114034914D01*
X105694077Y-114082533D01*
X105598839Y-114130152D01*
X105408362Y-114130152D01*
X105313124Y-114177771D01*
X105265505Y-114225390D01*
X105217886Y-114320629D01*
X105217886Y-114511105D01*
X105265505Y-114606343D01*
X105313124Y-114653962D01*
X105408362Y-114701581D01*
X105598839Y-114701581D01*
X105694077Y-114653962D01*
X105741696Y-114606343D01*
X105789315Y-114511105D01*
X105789315Y-114320629D01*
X105741696Y-114225390D01*
X105694077Y-114177771D01*
X105598839Y-114130152D01*
X105201981Y-123864666D02*
X104725790Y-124198000D01*
X105201981Y-124436095D02*
X104201981Y-124436095D01*
X104201981Y-124055142D01*
X104249600Y-123959904D01*
X104297219Y-123912285D01*
X104392457Y-123864666D01*
X104535314Y-123864666D01*
X104630552Y-123912285D01*
X104678171Y-123959904D01*
X104725790Y-124055142D01*
X104725790Y-124436095D01*
X105201981Y-123388476D02*
X105201981Y-123198000D01*
X105154362Y-123102761D01*
X105106743Y-123055142D01*
X104963886Y-122959904D01*
X104773410Y-122912285D01*
X104392457Y-122912285D01*
X104297219Y-122959904D01*
X104249600Y-123007523D01*
X104201981Y-123102761D01*
X104201981Y-123293238D01*
X104249600Y-123388476D01*
X104297219Y-123436095D01*
X104392457Y-123483714D01*
X104630552Y-123483714D01*
X104725790Y-123436095D01*
X104773410Y-123388476D01*
X104821029Y-123293238D01*
X104821029Y-123102761D01*
X104773410Y-123007523D01*
X104725790Y-122959904D01*
X104630552Y-122912285D01*
X104868743Y-129636781D02*
X104535409Y-129160590D01*
X104297314Y-129636781D02*
X104297314Y-128636781D01*
X104678267Y-128636781D01*
X104773505Y-128684400D01*
X104821124Y-128732019D01*
X104868743Y-128827257D01*
X104868743Y-128970114D01*
X104821124Y-129065352D01*
X104773505Y-129112971D01*
X104678267Y-129160590D01*
X104297314Y-129160590D01*
X105821124Y-129636781D02*
X105249695Y-129636781D01*
X105535409Y-129636781D02*
X105535409Y-128636781D01*
X105440171Y-128779638D01*
X105344933Y-128874876D01*
X105249695Y-128922495D01*
X106202076Y-128732019D02*
X106249695Y-128684400D01*
X106344933Y-128636781D01*
X106583029Y-128636781D01*
X106678267Y-128684400D01*
X106725886Y-128732019D01*
X106773505Y-128827257D01*
X106773505Y-128922495D01*
X106725886Y-129065352D01*
X106154457Y-129636781D01*
X106773505Y-129636781D01*
X117670343Y-130957581D02*
X117337009Y-130481390D01*
X117098914Y-130957581D02*
X117098914Y-129957581D01*
X117479867Y-129957581D01*
X117575105Y-130005200D01*
X117622724Y-130052819D01*
X117670343Y-130148057D01*
X117670343Y-130290914D01*
X117622724Y-130386152D01*
X117575105Y-130433771D01*
X117479867Y-130481390D01*
X117098914Y-130481390D01*
X118622724Y-130957581D02*
X118051295Y-130957581D01*
X118337009Y-130957581D02*
X118337009Y-129957581D01*
X118241771Y-130100438D01*
X118146533Y-130195676D01*
X118051295Y-130243295D01*
X118956057Y-129957581D02*
X119575105Y-129957581D01*
X119241771Y-130338533D01*
X119384629Y-130338533D01*
X119479867Y-130386152D01*
X119527486Y-130433771D01*
X119575105Y-130529010D01*
X119575105Y-130767105D01*
X119527486Y-130862343D01*
X119479867Y-130909962D01*
X119384629Y-130957581D01*
X119098914Y-130957581D01*
X119003676Y-130909962D01*
X118956057Y-130862343D01*
X117619543Y-129687581D02*
X117286209Y-129211390D01*
X117048114Y-129687581D02*
X117048114Y-128687581D01*
X117429067Y-128687581D01*
X117524305Y-128735200D01*
X117571924Y-128782819D01*
X117619543Y-128878057D01*
X117619543Y-129020914D01*
X117571924Y-129116152D01*
X117524305Y-129163771D01*
X117429067Y-129211390D01*
X117048114Y-129211390D01*
X118571924Y-129687581D02*
X118000495Y-129687581D01*
X118286209Y-129687581D02*
X118286209Y-128687581D01*
X118190971Y-128830438D01*
X118095733Y-128925676D01*
X118000495Y-128973295D01*
X119429067Y-129020914D02*
X119429067Y-129687581D01*
X119190971Y-128639962D02*
X118952876Y-129354248D01*
X119571924Y-129354248D01*
X113685581Y-126830057D02*
X113209390Y-127163391D01*
X113685581Y-127401486D02*
X112685581Y-127401486D01*
X112685581Y-127020533D01*
X112733200Y-126925295D01*
X112780819Y-126877676D01*
X112876057Y-126830057D01*
X113018914Y-126830057D01*
X113114152Y-126877676D01*
X113161771Y-126925295D01*
X113209390Y-127020533D01*
X113209390Y-127401486D01*
X113685581Y-125877676D02*
X113685581Y-126449105D01*
X113685581Y-126163391D02*
X112685581Y-126163391D01*
X112828438Y-126258629D01*
X112923676Y-126353867D01*
X112971295Y-126449105D01*
X112685581Y-124972914D02*
X112685581Y-125449105D01*
X113161771Y-125496724D01*
X113114152Y-125449105D01*
X113066533Y-125353867D01*
X113066533Y-125115771D01*
X113114152Y-125020533D01*
X113161771Y-124972914D01*
X113257010Y-124925295D01*
X113495105Y-124925295D01*
X113590343Y-124972914D01*
X113637962Y-125020533D01*
X113685581Y-125115771D01*
X113685581Y-125353867D01*
X113637962Y-125449105D01*
X113590343Y-125496724D01*
X113583981Y-123934457D02*
X113107790Y-124267791D01*
X113583981Y-124505886D02*
X112583981Y-124505886D01*
X112583981Y-124124933D01*
X112631600Y-124029695D01*
X112679219Y-123982076D01*
X112774457Y-123934457D01*
X112917314Y-123934457D01*
X113012552Y-123982076D01*
X113060171Y-124029695D01*
X113107790Y-124124933D01*
X113107790Y-124505886D01*
X113583981Y-122982076D02*
X113583981Y-123553505D01*
X113583981Y-123267791D02*
X112583981Y-123267791D01*
X112726838Y-123363029D01*
X112822076Y-123458267D01*
X112869695Y-123553505D01*
X112583981Y-122124933D02*
X112583981Y-122315410D01*
X112631600Y-122410648D01*
X112679219Y-122458267D01*
X112822076Y-122553505D01*
X113012552Y-122601124D01*
X113393505Y-122601124D01*
X113488743Y-122553505D01*
X113536362Y-122505886D01*
X113583981Y-122410648D01*
X113583981Y-122220171D01*
X113536362Y-122124933D01*
X113488743Y-122077314D01*
X113393505Y-122029695D01*
X113155410Y-122029695D01*
X113060171Y-122077314D01*
X113012552Y-122124933D01*
X112964933Y-122220171D01*
X112964933Y-122410648D01*
X113012552Y-122505886D01*
X113060171Y-122553505D01*
X113155410Y-122601124D01*
X120797581Y-124594857D02*
X120321390Y-124928191D01*
X120797581Y-125166286D02*
X119797581Y-125166286D01*
X119797581Y-124785333D01*
X119845200Y-124690095D01*
X119892819Y-124642476D01*
X119988057Y-124594857D01*
X120130914Y-124594857D01*
X120226152Y-124642476D01*
X120273771Y-124690095D01*
X120321390Y-124785333D01*
X120321390Y-125166286D01*
X120797581Y-123642476D02*
X120797581Y-124213905D01*
X120797581Y-123928191D02*
X119797581Y-123928191D01*
X119940438Y-124023429D01*
X120035676Y-124118667D01*
X120083295Y-124213905D01*
X119797581Y-123309143D02*
X119797581Y-122642476D01*
X120797581Y-123071048D01*
X117901981Y-119362457D02*
X117425790Y-119695791D01*
X117901981Y-119933886D02*
X116901981Y-119933886D01*
X116901981Y-119552933D01*
X116949600Y-119457695D01*
X116997219Y-119410076D01*
X117092457Y-119362457D01*
X117235314Y-119362457D01*
X117330552Y-119410076D01*
X117378171Y-119457695D01*
X117425790Y-119552933D01*
X117425790Y-119933886D01*
X117901981Y-118410076D02*
X117901981Y-118981505D01*
X117901981Y-118695791D02*
X116901981Y-118695791D01*
X117044838Y-118791029D01*
X117140076Y-118886267D01*
X117187695Y-118981505D01*
X117330552Y-117838648D02*
X117282933Y-117933886D01*
X117235314Y-117981505D01*
X117140076Y-118029124D01*
X117092457Y-118029124D01*
X116997219Y-117981505D01*
X116949600Y-117933886D01*
X116901981Y-117838648D01*
X116901981Y-117648171D01*
X116949600Y-117552933D01*
X116997219Y-117505314D01*
X117092457Y-117457695D01*
X117140076Y-117457695D01*
X117235314Y-117505314D01*
X117282933Y-117552933D01*
X117330552Y-117648171D01*
X117330552Y-117838648D01*
X117378171Y-117933886D01*
X117425790Y-117981505D01*
X117521029Y-118029124D01*
X117711505Y-118029124D01*
X117806743Y-117981505D01*
X117854362Y-117933886D01*
X117901981Y-117838648D01*
X117901981Y-117648171D01*
X117854362Y-117552933D01*
X117806743Y-117505314D01*
X117711505Y-117457695D01*
X117521029Y-117457695D01*
X117425790Y-117505314D01*
X117378171Y-117552933D01*
X117330552Y-117648171D01*
X117901981Y-122156457D02*
X117425790Y-122489791D01*
X117901981Y-122727886D02*
X116901981Y-122727886D01*
X116901981Y-122346933D01*
X116949600Y-122251695D01*
X116997219Y-122204076D01*
X117092457Y-122156457D01*
X117235314Y-122156457D01*
X117330552Y-122204076D01*
X117378171Y-122251695D01*
X117425790Y-122346933D01*
X117425790Y-122727886D01*
X117901981Y-121204076D02*
X117901981Y-121775505D01*
X117901981Y-121489791D02*
X116901981Y-121489791D01*
X117044838Y-121585029D01*
X117140076Y-121680267D01*
X117187695Y-121775505D01*
X117901981Y-120727886D02*
X117901981Y-120537410D01*
X117854362Y-120442171D01*
X117806743Y-120394552D01*
X117663886Y-120299314D01*
X117473410Y-120251695D01*
X117092457Y-120251695D01*
X116997219Y-120299314D01*
X116949600Y-120346933D01*
X116901981Y-120442171D01*
X116901981Y-120632648D01*
X116949600Y-120727886D01*
X116997219Y-120775505D01*
X117092457Y-120823124D01*
X117330552Y-120823124D01*
X117425790Y-120775505D01*
X117473410Y-120727886D01*
X117521029Y-120632648D01*
X117521029Y-120442171D01*
X117473410Y-120346933D01*
X117425790Y-120299314D01*
X117330552Y-120251695D01*
X104817943Y-136901181D02*
X104484609Y-136424990D01*
X104246514Y-136901181D02*
X104246514Y-135901181D01*
X104627467Y-135901181D01*
X104722705Y-135948800D01*
X104770324Y-135996419D01*
X104817943Y-136091657D01*
X104817943Y-136234514D01*
X104770324Y-136329752D01*
X104722705Y-136377371D01*
X104627467Y-136424990D01*
X104246514Y-136424990D01*
X105198895Y-135996419D02*
X105246514Y-135948800D01*
X105341752Y-135901181D01*
X105579848Y-135901181D01*
X105675086Y-135948800D01*
X105722705Y-135996419D01*
X105770324Y-136091657D01*
X105770324Y-136186895D01*
X105722705Y-136329752D01*
X105151276Y-136901181D01*
X105770324Y-136901181D01*
X106389371Y-135901181D02*
X106484610Y-135901181D01*
X106579848Y-135948800D01*
X106627467Y-135996419D01*
X106675086Y-136091657D01*
X106722705Y-136282133D01*
X106722705Y-136520229D01*
X106675086Y-136710705D01*
X106627467Y-136805943D01*
X106579848Y-136853562D01*
X106484610Y-136901181D01*
X106389371Y-136901181D01*
X106294133Y-136853562D01*
X106246514Y-136805943D01*
X106198895Y-136710705D01*
X106151276Y-136520229D01*
X106151276Y-136282133D01*
X106198895Y-136091657D01*
X106246514Y-135996419D01*
X106294133Y-135948800D01*
X106389371Y-135901181D01*
X104868743Y-135021581D02*
X104535409Y-134545390D01*
X104297314Y-135021581D02*
X104297314Y-134021581D01*
X104678267Y-134021581D01*
X104773505Y-134069200D01*
X104821124Y-134116819D01*
X104868743Y-134212057D01*
X104868743Y-134354914D01*
X104821124Y-134450152D01*
X104773505Y-134497771D01*
X104678267Y-134545390D01*
X104297314Y-134545390D01*
X105249695Y-134116819D02*
X105297314Y-134069200D01*
X105392552Y-134021581D01*
X105630648Y-134021581D01*
X105725886Y-134069200D01*
X105773505Y-134116819D01*
X105821124Y-134212057D01*
X105821124Y-134307295D01*
X105773505Y-134450152D01*
X105202076Y-135021581D01*
X105821124Y-135021581D01*
X106773505Y-135021581D02*
X106202076Y-135021581D01*
X106487790Y-135021581D02*
X106487790Y-134021581D01*
X106392552Y-134164438D01*
X106297314Y-134259676D01*
X106202076Y-134307295D01*
X104817943Y-133141981D02*
X104484609Y-132665790D01*
X104246514Y-133141981D02*
X104246514Y-132141981D01*
X104627467Y-132141981D01*
X104722705Y-132189600D01*
X104770324Y-132237219D01*
X104817943Y-132332457D01*
X104817943Y-132475314D01*
X104770324Y-132570552D01*
X104722705Y-132618171D01*
X104627467Y-132665790D01*
X104246514Y-132665790D01*
X105198895Y-132237219D02*
X105246514Y-132189600D01*
X105341752Y-132141981D01*
X105579848Y-132141981D01*
X105675086Y-132189600D01*
X105722705Y-132237219D01*
X105770324Y-132332457D01*
X105770324Y-132427695D01*
X105722705Y-132570552D01*
X105151276Y-133141981D01*
X105770324Y-133141981D01*
X106151276Y-132237219D02*
X106198895Y-132189600D01*
X106294133Y-132141981D01*
X106532229Y-132141981D01*
X106627467Y-132189600D01*
X106675086Y-132237219D01*
X106722705Y-132332457D01*
X106722705Y-132427695D01*
X106675086Y-132570552D01*
X106103657Y-133141981D01*
X106722705Y-133141981D01*
X104868743Y-131465581D02*
X104535409Y-130989390D01*
X104297314Y-131465581D02*
X104297314Y-130465581D01*
X104678267Y-130465581D01*
X104773505Y-130513200D01*
X104821124Y-130560819D01*
X104868743Y-130656057D01*
X104868743Y-130798914D01*
X104821124Y-130894152D01*
X104773505Y-130941771D01*
X104678267Y-130989390D01*
X104297314Y-130989390D01*
X105249695Y-130560819D02*
X105297314Y-130513200D01*
X105392552Y-130465581D01*
X105630648Y-130465581D01*
X105725886Y-130513200D01*
X105773505Y-130560819D01*
X105821124Y-130656057D01*
X105821124Y-130751295D01*
X105773505Y-130894152D01*
X105202076Y-131465581D01*
X105821124Y-131465581D01*
X106154457Y-130465581D02*
X106773505Y-130465581D01*
X106440171Y-130846533D01*
X106583029Y-130846533D01*
X106678267Y-130894152D01*
X106725886Y-130941771D01*
X106773505Y-131037010D01*
X106773505Y-131275105D01*
X106725886Y-131370343D01*
X106678267Y-131417962D01*
X106583029Y-131465581D01*
X106297314Y-131465581D01*
X106202076Y-131417962D01*
X106154457Y-131370343D01*
X108238095Y-116552381D02*
X108238095Y-117361905D01*
X108285714Y-117457143D01*
X108333333Y-117504762D01*
X108428571Y-117552381D01*
X108619048Y-117552381D01*
X108714286Y-117504762D01*
X108761905Y-117457143D01*
X108809524Y-117361905D01*
X108809524Y-116552381D01*
X109809524Y-117552381D02*
X109238095Y-117552381D01*
X109523809Y-117552381D02*
X109523809Y-116552381D01*
X109428571Y-116695238D01*
X109333333Y-116790476D01*
X109238095Y-116838095D01*
X118867181Y-124232895D02*
X117867181Y-124232895D01*
X117867181Y-123994800D01*
X117914800Y-123851942D01*
X118010038Y-123756704D01*
X118105276Y-123709085D01*
X118295752Y-123661466D01*
X118438610Y-123661466D01*
X118629086Y-123709085D01*
X118724324Y-123756704D01*
X118819562Y-123851942D01*
X118867181Y-123994800D01*
X118867181Y-124232895D01*
X118867181Y-122709085D02*
X118867181Y-123280514D01*
X118867181Y-122994800D02*
X117867181Y-122994800D01*
X118010038Y-123090038D01*
X118105276Y-123185276D01*
X118152895Y-123280514D01*
X121051581Y-102185695D02*
X120051581Y-102185695D01*
X120051581Y-101804742D01*
X120099200Y-101709504D01*
X120146819Y-101661885D01*
X120242057Y-101614266D01*
X120384914Y-101614266D01*
X120480152Y-101661885D01*
X120527771Y-101709504D01*
X120575390Y-101804742D01*
X120575390Y-102185695D01*
X121051581Y-100661885D02*
X121051581Y-101233314D01*
X121051581Y-100947600D02*
X120051581Y-100947600D01*
X120194438Y-101042838D01*
X120289676Y-101138076D01*
X120337295Y-101233314D01*
X123112305Y-105963981D02*
X123112305Y-104963981D01*
X123493258Y-104963981D01*
X123588496Y-105011600D01*
X123636115Y-105059219D01*
X123683734Y-105154457D01*
X123683734Y-105297314D01*
X123636115Y-105392552D01*
X123588496Y-105440171D01*
X123493258Y-105487790D01*
X123112305Y-105487790D01*
X124064686Y-105059219D02*
X124112305Y-105011600D01*
X124207543Y-104963981D01*
X124445639Y-104963981D01*
X124540877Y-105011600D01*
X124588496Y-105059219D01*
X124636115Y-105154457D01*
X124636115Y-105249695D01*
X124588496Y-105392552D01*
X124017067Y-105963981D01*
X124636115Y-105963981D01*
X122807505Y-143606781D02*
X122807505Y-142606781D01*
X123188458Y-142606781D01*
X123283696Y-142654400D01*
X123331315Y-142702019D01*
X123378934Y-142797257D01*
X123378934Y-142940114D01*
X123331315Y-143035352D01*
X123283696Y-143082971D01*
X123188458Y-143130590D01*
X122807505Y-143130590D01*
X123712267Y-142606781D02*
X124331315Y-142606781D01*
X123997981Y-142987733D01*
X124140839Y-142987733D01*
X124236077Y-143035352D01*
X124283696Y-143082971D01*
X124331315Y-143178210D01*
X124331315Y-143416305D01*
X124283696Y-143511543D01*
X124236077Y-143559162D01*
X124140839Y-143606781D01*
X123855124Y-143606781D01*
X123759886Y-143559162D01*
X123712267Y-143511543D01*
X121153181Y-148820095D02*
X120153181Y-148820095D01*
X120153181Y-148439142D01*
X120200800Y-148343904D01*
X120248419Y-148296285D01*
X120343657Y-148248666D01*
X120486514Y-148248666D01*
X120581752Y-148296285D01*
X120629371Y-148343904D01*
X120676990Y-148439142D01*
X120676990Y-148820095D01*
X120486514Y-147391523D02*
X121153181Y-147391523D01*
X120105562Y-147629619D02*
X120819848Y-147867714D01*
X120819848Y-147248666D01*
X122401105Y-130195581D02*
X122401105Y-129195581D01*
X122782058Y-129195581D01*
X122877296Y-129243200D01*
X122924915Y-129290819D01*
X122972534Y-129386057D01*
X122972534Y-129528914D01*
X122924915Y-129624152D01*
X122877296Y-129671771D01*
X122782058Y-129719390D01*
X122401105Y-129719390D01*
X123877296Y-129195581D02*
X123401105Y-129195581D01*
X123353486Y-129671771D01*
X123401105Y-129624152D01*
X123496343Y-129576533D01*
X123734439Y-129576533D01*
X123829677Y-129624152D01*
X123877296Y-129671771D01*
X123924915Y-129767010D01*
X123924915Y-130005105D01*
X123877296Y-130100343D01*
X123829677Y-130147962D01*
X123734439Y-130195581D01*
X123496343Y-130195581D01*
X123401105Y-130147962D01*
X123353486Y-130100343D01*
M02*
