G04 #@! TF.FileFunction,Soldermask,Top*
%FSLAX46Y46*%
G04 Gerber Fmt 4.6, Leading zero omitted, Abs format (unit mm)*
G04 Created by KiCad (PCBNEW 4.0.2-stable) date 6/1/2017 8:35:31 PM*
%MOMM*%
G01*
G04 APERTURE LIST*
%ADD10C,0.100000*%
%ADD11C,0.150000*%
%ADD12R,1.000000X1.250000*%
%ADD13R,1.600000X1.000000*%
%ADD14R,0.700000X1.300000*%
%ADD15R,1.300000X0.700000*%
%ADD16R,1.100000X0.400000*%
%ADD17R,1.200000X1.200000*%
%ADD18R,1.700000X1.700000*%
%ADD19O,1.700000X1.700000*%
%ADD20C,3.200000*%
G04 APERTURE END LIST*
D10*
D11*
X125000000Y-100000000D02*
X100000000Y-100000000D01*
X125000000Y-150000000D02*
X125000000Y-100000000D01*
X100000000Y-150000000D02*
X125000000Y-150000000D01*
X100000000Y-100000000D02*
X100000000Y-150000000D01*
D12*
X114230400Y-117449600D03*
X116230400Y-117449600D03*
D13*
X119075200Y-118337200D03*
X119075200Y-121337200D03*
D14*
X101513600Y-116128800D03*
X103413600Y-116128800D03*
X101513600Y-118008400D03*
X103413600Y-118008400D03*
X101513600Y-119888000D03*
X103413600Y-119888000D03*
X101513600Y-121716800D03*
X103413600Y-121716800D03*
X103428800Y-112369600D03*
X101528800Y-112369600D03*
X103413600Y-108610400D03*
X101513600Y-108610400D03*
X103413600Y-110490000D03*
X101513600Y-110490000D03*
X103413600Y-114249200D03*
X101513600Y-114249200D03*
X101513600Y-123545600D03*
X103413600Y-123545600D03*
X101513600Y-125374400D03*
X103413600Y-125374400D03*
X101513600Y-127203200D03*
X103413600Y-127203200D03*
X101513600Y-129032000D03*
X103413600Y-129032000D03*
X116215200Y-128981200D03*
X114315200Y-128981200D03*
X116215200Y-127101600D03*
X114315200Y-127101600D03*
X116215200Y-125222000D03*
X114315200Y-125222000D03*
X116215200Y-123342400D03*
X114315200Y-123342400D03*
D15*
X120294400Y-125999200D03*
X120294400Y-127899200D03*
D14*
X114315200Y-119430800D03*
X116215200Y-119430800D03*
X114315200Y-121412000D03*
X116215200Y-121412000D03*
X101513600Y-136398000D03*
X103413600Y-136398000D03*
X101513600Y-134518400D03*
X103413600Y-134518400D03*
X101513600Y-132689600D03*
X103413600Y-132689600D03*
X101513600Y-130860800D03*
X103413600Y-130860800D03*
D16*
X106150000Y-118775000D03*
X106150000Y-119425000D03*
X106150000Y-120075000D03*
X106150000Y-120725000D03*
X106150000Y-121375000D03*
X106150000Y-122025000D03*
X106150000Y-122675000D03*
X106150000Y-123325000D03*
X106150000Y-123975000D03*
X106150000Y-124625000D03*
X106150000Y-125275000D03*
X106150000Y-125925000D03*
X106150000Y-126575000D03*
X106150000Y-127225000D03*
X111850000Y-127225000D03*
X111850000Y-126575000D03*
X111850000Y-125925000D03*
X111850000Y-125275000D03*
X111850000Y-124625000D03*
X111850000Y-123975000D03*
X111850000Y-123325000D03*
X111850000Y-122675000D03*
X111850000Y-122025000D03*
X111850000Y-121375000D03*
X111850000Y-120725000D03*
X111850000Y-120075000D03*
X111850000Y-119425000D03*
X111850000Y-118775000D03*
D17*
X118364000Y-127642800D03*
X118364000Y-125442800D03*
D18*
X110363000Y-104394000D03*
D19*
X110363000Y-101854000D03*
X112903000Y-104394000D03*
X112903000Y-101854000D03*
X115443000Y-104394000D03*
X115443000Y-101854000D03*
X117983000Y-104394000D03*
X117983000Y-101854000D03*
D18*
X120650000Y-108077000D03*
D19*
X123190000Y-108077000D03*
X120650000Y-110617000D03*
X123190000Y-110617000D03*
X120650000Y-113157000D03*
X123190000Y-113157000D03*
X120650000Y-115697000D03*
X123190000Y-115697000D03*
D18*
X120000000Y-133000000D03*
D19*
X122540000Y-133000000D03*
X120000000Y-135540000D03*
X122540000Y-135540000D03*
X120000000Y-138080000D03*
X122540000Y-138080000D03*
X120000000Y-140620000D03*
X122540000Y-140620000D03*
D18*
X118110000Y-145440400D03*
D19*
X118110000Y-147980400D03*
X115570000Y-145440400D03*
X115570000Y-147980400D03*
X113030000Y-145440400D03*
X113030000Y-147980400D03*
X110490000Y-145440400D03*
X110490000Y-147980400D03*
D18*
X123082000Y-119634000D03*
D19*
X123082000Y-122174000D03*
X123082000Y-124714000D03*
X123082000Y-127254000D03*
D20*
X105000000Y-104000000D03*
X105000000Y-146000000D03*
M02*
