G04 #@! TF.FileFunction,Copper,L2,Bot,Signal*
%FSLAX46Y46*%
G04 Gerber Fmt 4.6, Leading zero omitted, Abs format (unit mm)*
G04 Created by KiCad (PCBNEW 4.0.2-stable) date 6/1/2017 8:35:31 PM*
%MOMM*%
G01*
G04 APERTURE LIST*
%ADD10C,0.100000*%
%ADD11C,0.150000*%
%ADD12R,1.700000X1.700000*%
%ADD13O,1.700000X1.700000*%
%ADD14C,0.600000*%
%ADD15C,0.250000*%
%ADD16C,0.500000*%
G04 APERTURE END LIST*
D10*
D11*
X125000000Y-100000000D02*
X100000000Y-100000000D01*
X125000000Y-150000000D02*
X125000000Y-100000000D01*
X100000000Y-150000000D02*
X125000000Y-150000000D01*
X100000000Y-100000000D02*
X100000000Y-150000000D01*
D12*
X110363000Y-104394000D03*
D13*
X110363000Y-101854000D03*
X112903000Y-104394000D03*
X112903000Y-101854000D03*
X115443000Y-104394000D03*
X115443000Y-101854000D03*
X117983000Y-104394000D03*
X117983000Y-101854000D03*
D12*
X120650000Y-108077000D03*
D13*
X123190000Y-108077000D03*
X120650000Y-110617000D03*
X123190000Y-110617000D03*
X120650000Y-113157000D03*
X123190000Y-113157000D03*
X120650000Y-115697000D03*
X123190000Y-115697000D03*
D12*
X120000000Y-133000000D03*
D13*
X122540000Y-133000000D03*
X120000000Y-135540000D03*
X122540000Y-135540000D03*
X120000000Y-138080000D03*
X122540000Y-138080000D03*
X120000000Y-140620000D03*
X122540000Y-140620000D03*
D12*
X118110000Y-145440400D03*
D13*
X118110000Y-147980400D03*
X115570000Y-145440400D03*
X115570000Y-147980400D03*
X113030000Y-145440400D03*
X113030000Y-147980400D03*
X110490000Y-145440400D03*
X110490000Y-147980400D03*
D12*
X123082000Y-119634000D03*
D13*
X123082000Y-122174000D03*
X123082000Y-124714000D03*
X123082000Y-127254000D03*
D14*
X113260148Y-119827780D03*
X113182400Y-121412000D03*
X113233200Y-117449600D03*
X106934000Y-117348000D03*
X121158000Y-123088400D03*
X113131600Y-122529600D03*
X105765600Y-128059400D03*
X117348000Y-120548400D03*
X117230400Y-117449600D03*
X101498400Y-138226800D03*
X102412800Y-110490000D03*
X118364000Y-123850400D03*
X107199900Y-120243600D03*
X106222800Y-136652000D03*
X106222800Y-133248400D03*
X105460800Y-138277600D03*
X105460800Y-131242400D03*
X104546400Y-137769600D03*
X104546400Y-130860800D03*
D15*
X113233200Y-119800832D02*
X113260148Y-119827780D01*
X113233200Y-117449600D02*
X113233200Y-119800832D01*
X113182400Y-121412000D02*
X113182400Y-119905528D01*
X113182400Y-119905528D02*
X113260148Y-119827780D01*
X113131600Y-117348000D02*
X113233200Y-117449600D01*
X107358264Y-117348000D02*
X113131600Y-117348000D01*
X106934000Y-117348000D02*
X107358264Y-117348000D01*
D16*
X121158000Y-123088400D02*
X121158000Y-120208000D01*
X121158000Y-120208000D02*
X121732000Y-119634000D01*
X121732000Y-119634000D02*
X123082000Y-119634000D01*
D15*
X106222800Y-133248400D02*
X106222800Y-136652000D01*
X105460800Y-131242400D02*
X105460800Y-131666664D01*
X105460800Y-131666664D02*
X105460800Y-138277600D01*
X104546400Y-131285064D02*
X104546400Y-137769600D01*
X104546400Y-130860800D02*
X104546400Y-131285064D01*
G36*
X124550000Y-149481000D02*
X100455000Y-149481000D01*
X100455000Y-148294495D01*
X109305941Y-148294495D01*
X109516271Y-148723706D01*
X109874843Y-149039755D01*
X110175907Y-149164449D01*
X110365000Y-149104723D01*
X110365000Y-148105400D01*
X110615000Y-148105400D01*
X110615000Y-149104723D01*
X110804093Y-149164449D01*
X111105157Y-149039755D01*
X111463729Y-148723706D01*
X111674059Y-148294495D01*
X111845941Y-148294495D01*
X112056271Y-148723706D01*
X112414843Y-149039755D01*
X112715907Y-149164449D01*
X112905000Y-149104723D01*
X112905000Y-148105400D01*
X113155000Y-148105400D01*
X113155000Y-149104723D01*
X113344093Y-149164449D01*
X113645157Y-149039755D01*
X114003729Y-148723706D01*
X114214059Y-148294495D01*
X114385941Y-148294495D01*
X114596271Y-148723706D01*
X114954843Y-149039755D01*
X115255907Y-149164449D01*
X115445000Y-149104723D01*
X115445000Y-148105400D01*
X115695000Y-148105400D01*
X115695000Y-149104723D01*
X115884093Y-149164449D01*
X116185157Y-149039755D01*
X116543729Y-148723706D01*
X116754059Y-148294495D01*
X116925941Y-148294495D01*
X117136271Y-148723706D01*
X117494843Y-149039755D01*
X117795907Y-149164449D01*
X117985000Y-149104723D01*
X117985000Y-148105400D01*
X118235000Y-148105400D01*
X118235000Y-149104723D01*
X118424093Y-149164449D01*
X118725157Y-149039755D01*
X119083729Y-148723706D01*
X119294059Y-148294495D01*
X119234867Y-148105400D01*
X118235000Y-148105400D01*
X117985000Y-148105400D01*
X116985133Y-148105400D01*
X116925941Y-148294495D01*
X116754059Y-148294495D01*
X116694867Y-148105400D01*
X115695000Y-148105400D01*
X115445000Y-148105400D01*
X114445133Y-148105400D01*
X114385941Y-148294495D01*
X114214059Y-148294495D01*
X114154867Y-148105400D01*
X113155000Y-148105400D01*
X112905000Y-148105400D01*
X111905133Y-148105400D01*
X111845941Y-148294495D01*
X111674059Y-148294495D01*
X111614867Y-148105400D01*
X110615000Y-148105400D01*
X110365000Y-148105400D01*
X109365133Y-148105400D01*
X109305941Y-148294495D01*
X100455000Y-148294495D01*
X100455000Y-146391128D01*
X103024657Y-146391128D01*
X103324700Y-147117286D01*
X103879791Y-147673348D01*
X104605425Y-147974657D01*
X105391128Y-147975343D01*
X106117286Y-147675300D01*
X106126296Y-147666305D01*
X109305941Y-147666305D01*
X109365133Y-147855400D01*
X110365000Y-147855400D01*
X110365000Y-146856077D01*
X110615000Y-146856077D01*
X110615000Y-147855400D01*
X111614867Y-147855400D01*
X111674059Y-147666305D01*
X111845941Y-147666305D01*
X111905133Y-147855400D01*
X112905000Y-147855400D01*
X112905000Y-146856077D01*
X113155000Y-146856077D01*
X113155000Y-147855400D01*
X114154867Y-147855400D01*
X114214059Y-147666305D01*
X114385941Y-147666305D01*
X114445133Y-147855400D01*
X115445000Y-147855400D01*
X115445000Y-146856077D01*
X115695000Y-146856077D01*
X115695000Y-147855400D01*
X116694867Y-147855400D01*
X116754059Y-147666305D01*
X116925941Y-147666305D01*
X116985133Y-147855400D01*
X117985000Y-147855400D01*
X117985000Y-146856077D01*
X118235000Y-146856077D01*
X118235000Y-147855400D01*
X119234867Y-147855400D01*
X119294059Y-147666305D01*
X119083729Y-147237094D01*
X118725157Y-146921045D01*
X118424093Y-146796351D01*
X118235000Y-146856077D01*
X117985000Y-146856077D01*
X117795907Y-146796351D01*
X117494843Y-146921045D01*
X117136271Y-147237094D01*
X116925941Y-147666305D01*
X116754059Y-147666305D01*
X116543729Y-147237094D01*
X116185157Y-146921045D01*
X115884093Y-146796351D01*
X115695000Y-146856077D01*
X115445000Y-146856077D01*
X115255907Y-146796351D01*
X114954843Y-146921045D01*
X114596271Y-147237094D01*
X114385941Y-147666305D01*
X114214059Y-147666305D01*
X114003729Y-147237094D01*
X113645157Y-146921045D01*
X113344093Y-146796351D01*
X113155000Y-146856077D01*
X112905000Y-146856077D01*
X112715907Y-146796351D01*
X112414843Y-146921045D01*
X112056271Y-147237094D01*
X111845941Y-147666305D01*
X111674059Y-147666305D01*
X111463729Y-147237094D01*
X111105157Y-146921045D01*
X110804093Y-146796351D01*
X110615000Y-146856077D01*
X110365000Y-146856077D01*
X110175907Y-146796351D01*
X109874843Y-146921045D01*
X109516271Y-147237094D01*
X109305941Y-147666305D01*
X106126296Y-147666305D01*
X106673348Y-147120209D01*
X106974657Y-146394575D01*
X106975343Y-145608872D01*
X106895816Y-145416401D01*
X109265000Y-145416401D01*
X109265000Y-145464399D01*
X109358248Y-145933186D01*
X109623794Y-146330605D01*
X110021213Y-146596151D01*
X110490000Y-146689399D01*
X110958787Y-146596151D01*
X111356206Y-146330605D01*
X111621752Y-145933186D01*
X111715000Y-145464399D01*
X111715000Y-145416401D01*
X111805000Y-145416401D01*
X111805000Y-145464399D01*
X111898248Y-145933186D01*
X112163794Y-146330605D01*
X112561213Y-146596151D01*
X113030000Y-146689399D01*
X113498787Y-146596151D01*
X113896206Y-146330605D01*
X114161752Y-145933186D01*
X114255000Y-145464399D01*
X114255000Y-145416401D01*
X114345000Y-145416401D01*
X114345000Y-145464399D01*
X114438248Y-145933186D01*
X114703794Y-146330605D01*
X115101213Y-146596151D01*
X115570000Y-146689399D01*
X116038787Y-146596151D01*
X116436206Y-146330605D01*
X116701752Y-145933186D01*
X116795000Y-145464399D01*
X116795000Y-145416401D01*
X116701752Y-144947614D01*
X116463071Y-144590400D01*
X116877654Y-144590400D01*
X116877654Y-146290400D01*
X116903802Y-146429366D01*
X116985931Y-146556999D01*
X117111246Y-146642623D01*
X117260000Y-146672746D01*
X118960000Y-146672746D01*
X119098966Y-146646598D01*
X119226599Y-146564469D01*
X119312223Y-146439154D01*
X119342346Y-146290400D01*
X119342346Y-144590400D01*
X119316198Y-144451434D01*
X119234069Y-144323801D01*
X119108754Y-144238177D01*
X118960000Y-144208054D01*
X117260000Y-144208054D01*
X117121034Y-144234202D01*
X116993401Y-144316331D01*
X116907777Y-144441646D01*
X116877654Y-144590400D01*
X116463071Y-144590400D01*
X116436206Y-144550195D01*
X116038787Y-144284649D01*
X115570000Y-144191401D01*
X115101213Y-144284649D01*
X114703794Y-144550195D01*
X114438248Y-144947614D01*
X114345000Y-145416401D01*
X114255000Y-145416401D01*
X114161752Y-144947614D01*
X113896206Y-144550195D01*
X113498787Y-144284649D01*
X113030000Y-144191401D01*
X112561213Y-144284649D01*
X112163794Y-144550195D01*
X111898248Y-144947614D01*
X111805000Y-145416401D01*
X111715000Y-145416401D01*
X111621752Y-144947614D01*
X111356206Y-144550195D01*
X110958787Y-144284649D01*
X110490000Y-144191401D01*
X110021213Y-144284649D01*
X109623794Y-144550195D01*
X109358248Y-144947614D01*
X109265000Y-145416401D01*
X106895816Y-145416401D01*
X106675300Y-144882714D01*
X106120209Y-144326652D01*
X105394575Y-144025343D01*
X104608872Y-144024657D01*
X103882714Y-144324700D01*
X103326652Y-144879791D01*
X103025343Y-145605425D01*
X103024657Y-146391128D01*
X100455000Y-146391128D01*
X100455000Y-140620000D01*
X118751001Y-140620000D01*
X118844249Y-141088787D01*
X119109795Y-141486206D01*
X119507214Y-141751752D01*
X119976001Y-141845000D01*
X120023999Y-141845000D01*
X120492786Y-141751752D01*
X120890205Y-141486206D01*
X121155751Y-141088787D01*
X121186521Y-140934093D01*
X121355951Y-140934093D01*
X121480645Y-141235157D01*
X121796694Y-141593729D01*
X122225905Y-141804059D01*
X122415000Y-141744867D01*
X122415000Y-140745000D01*
X122665000Y-140745000D01*
X122665000Y-141744867D01*
X122854095Y-141804059D01*
X123283306Y-141593729D01*
X123599355Y-141235157D01*
X123724049Y-140934093D01*
X123664323Y-140745000D01*
X122665000Y-140745000D01*
X122415000Y-140745000D01*
X121415677Y-140745000D01*
X121355951Y-140934093D01*
X121186521Y-140934093D01*
X121248999Y-140620000D01*
X121186522Y-140305907D01*
X121355951Y-140305907D01*
X121415677Y-140495000D01*
X122415000Y-140495000D01*
X122415000Y-139495133D01*
X122665000Y-139495133D01*
X122665000Y-140495000D01*
X123664323Y-140495000D01*
X123724049Y-140305907D01*
X123599355Y-140004843D01*
X123283306Y-139646271D01*
X122854095Y-139435941D01*
X122665000Y-139495133D01*
X122415000Y-139495133D01*
X122225905Y-139435941D01*
X121796694Y-139646271D01*
X121480645Y-140004843D01*
X121355951Y-140305907D01*
X121186522Y-140305907D01*
X121155751Y-140151213D01*
X120890205Y-139753794D01*
X120492786Y-139488248D01*
X120023999Y-139395000D01*
X119976001Y-139395000D01*
X119507214Y-139488248D01*
X119109795Y-139753794D01*
X118844249Y-140151213D01*
X118751001Y-140620000D01*
X100455000Y-140620000D01*
X100455000Y-130994477D01*
X103871283Y-130994477D01*
X103973829Y-131242657D01*
X104046400Y-131315355D01*
X104046400Y-137314966D01*
X103974497Y-137386744D01*
X103871517Y-137634745D01*
X103871283Y-137903277D01*
X103973829Y-138151457D01*
X104163544Y-138341503D01*
X104411545Y-138444483D01*
X104680077Y-138444717D01*
X104785692Y-138401078D01*
X104785683Y-138411277D01*
X104888229Y-138659457D01*
X105077944Y-138849503D01*
X105325945Y-138952483D01*
X105594477Y-138952717D01*
X105842657Y-138850171D01*
X106032703Y-138660456D01*
X106135683Y-138412455D01*
X106135917Y-138143923D01*
X106109505Y-138080000D01*
X118751001Y-138080000D01*
X118844249Y-138548787D01*
X119109795Y-138946206D01*
X119507214Y-139211752D01*
X119976001Y-139305000D01*
X120023999Y-139305000D01*
X120492786Y-139211752D01*
X120890205Y-138946206D01*
X121155751Y-138548787D01*
X121186521Y-138394093D01*
X121355951Y-138394093D01*
X121480645Y-138695157D01*
X121796694Y-139053729D01*
X122225905Y-139264059D01*
X122415000Y-139204867D01*
X122415000Y-138205000D01*
X122665000Y-138205000D01*
X122665000Y-139204867D01*
X122854095Y-139264059D01*
X123283306Y-139053729D01*
X123599355Y-138695157D01*
X123724049Y-138394093D01*
X123664323Y-138205000D01*
X122665000Y-138205000D01*
X122415000Y-138205000D01*
X121415677Y-138205000D01*
X121355951Y-138394093D01*
X121186521Y-138394093D01*
X121248999Y-138080000D01*
X121186522Y-137765907D01*
X121355951Y-137765907D01*
X121415677Y-137955000D01*
X122415000Y-137955000D01*
X122415000Y-136955133D01*
X122665000Y-136955133D01*
X122665000Y-137955000D01*
X123664323Y-137955000D01*
X123724049Y-137765907D01*
X123599355Y-137464843D01*
X123283306Y-137106271D01*
X122854095Y-136895941D01*
X122665000Y-136955133D01*
X122415000Y-136955133D01*
X122225905Y-136895941D01*
X121796694Y-137106271D01*
X121480645Y-137464843D01*
X121355951Y-137765907D01*
X121186522Y-137765907D01*
X121155751Y-137611213D01*
X120890205Y-137213794D01*
X120492786Y-136948248D01*
X120023999Y-136855000D01*
X119976001Y-136855000D01*
X119507214Y-136948248D01*
X119109795Y-137213794D01*
X118844249Y-137611213D01*
X118751001Y-138080000D01*
X106109505Y-138080000D01*
X106033371Y-137895743D01*
X105960800Y-137823045D01*
X105960800Y-137274087D01*
X106087945Y-137326883D01*
X106356477Y-137327117D01*
X106604657Y-137224571D01*
X106794703Y-137034856D01*
X106897683Y-136786855D01*
X106897917Y-136518323D01*
X106795371Y-136270143D01*
X106722800Y-136197445D01*
X106722800Y-135540000D01*
X118751001Y-135540000D01*
X118844249Y-136008787D01*
X119109795Y-136406206D01*
X119507214Y-136671752D01*
X119976001Y-136765000D01*
X120023999Y-136765000D01*
X120492786Y-136671752D01*
X120890205Y-136406206D01*
X121155751Y-136008787D01*
X121186521Y-135854093D01*
X121355951Y-135854093D01*
X121480645Y-136155157D01*
X121796694Y-136513729D01*
X122225905Y-136724059D01*
X122415000Y-136664867D01*
X122415000Y-135665000D01*
X122665000Y-135665000D01*
X122665000Y-136664867D01*
X122854095Y-136724059D01*
X123283306Y-136513729D01*
X123599355Y-136155157D01*
X123724049Y-135854093D01*
X123664323Y-135665000D01*
X122665000Y-135665000D01*
X122415000Y-135665000D01*
X121415677Y-135665000D01*
X121355951Y-135854093D01*
X121186521Y-135854093D01*
X121248999Y-135540000D01*
X121186522Y-135225907D01*
X121355951Y-135225907D01*
X121415677Y-135415000D01*
X122415000Y-135415000D01*
X122415000Y-134415133D01*
X122665000Y-134415133D01*
X122665000Y-135415000D01*
X123664323Y-135415000D01*
X123724049Y-135225907D01*
X123599355Y-134924843D01*
X123283306Y-134566271D01*
X122854095Y-134355941D01*
X122665000Y-134415133D01*
X122415000Y-134415133D01*
X122225905Y-134355941D01*
X121796694Y-134566271D01*
X121480645Y-134924843D01*
X121355951Y-135225907D01*
X121186522Y-135225907D01*
X121155751Y-135071213D01*
X120890205Y-134673794D01*
X120492786Y-134408248D01*
X120023999Y-134315000D01*
X119976001Y-134315000D01*
X119507214Y-134408248D01*
X119109795Y-134673794D01*
X118844249Y-135071213D01*
X118751001Y-135540000D01*
X106722800Y-135540000D01*
X106722800Y-133703034D01*
X106794703Y-133631256D01*
X106897683Y-133383255D01*
X106897917Y-133114723D01*
X106795371Y-132866543D01*
X106605656Y-132676497D01*
X106357655Y-132573517D01*
X106089123Y-132573283D01*
X105960800Y-132626305D01*
X105960800Y-132150000D01*
X118767654Y-132150000D01*
X118767654Y-133850000D01*
X118793802Y-133988966D01*
X118875931Y-134116599D01*
X119001246Y-134202223D01*
X119150000Y-134232346D01*
X120850000Y-134232346D01*
X120988966Y-134206198D01*
X121116599Y-134124069D01*
X121202223Y-133998754D01*
X121232346Y-133850000D01*
X121232346Y-133314093D01*
X121355951Y-133314093D01*
X121480645Y-133615157D01*
X121796694Y-133973729D01*
X122225905Y-134184059D01*
X122415000Y-134124867D01*
X122415000Y-133125000D01*
X122665000Y-133125000D01*
X122665000Y-134124867D01*
X122854095Y-134184059D01*
X123283306Y-133973729D01*
X123599355Y-133615157D01*
X123724049Y-133314093D01*
X123664323Y-133125000D01*
X122665000Y-133125000D01*
X122415000Y-133125000D01*
X121415677Y-133125000D01*
X121355951Y-133314093D01*
X121232346Y-133314093D01*
X121232346Y-132685907D01*
X121355951Y-132685907D01*
X121415677Y-132875000D01*
X122415000Y-132875000D01*
X122415000Y-131875133D01*
X122665000Y-131875133D01*
X122665000Y-132875000D01*
X123664323Y-132875000D01*
X123724049Y-132685907D01*
X123599355Y-132384843D01*
X123283306Y-132026271D01*
X122854095Y-131815941D01*
X122665000Y-131875133D01*
X122415000Y-131875133D01*
X122225905Y-131815941D01*
X121796694Y-132026271D01*
X121480645Y-132384843D01*
X121355951Y-132685907D01*
X121232346Y-132685907D01*
X121232346Y-132150000D01*
X121206198Y-132011034D01*
X121124069Y-131883401D01*
X120998754Y-131797777D01*
X120850000Y-131767654D01*
X119150000Y-131767654D01*
X119011034Y-131793802D01*
X118883401Y-131875931D01*
X118797777Y-132001246D01*
X118767654Y-132150000D01*
X105960800Y-132150000D01*
X105960800Y-131697034D01*
X106032703Y-131625256D01*
X106135683Y-131377255D01*
X106135917Y-131108723D01*
X106033371Y-130860543D01*
X105843656Y-130670497D01*
X105595655Y-130567517D01*
X105327123Y-130567283D01*
X105180504Y-130627865D01*
X105118971Y-130478943D01*
X104929256Y-130288897D01*
X104681255Y-130185917D01*
X104412723Y-130185683D01*
X104164543Y-130288229D01*
X103974497Y-130477944D01*
X103871517Y-130725945D01*
X103871283Y-130994477D01*
X100455000Y-130994477D01*
X100455000Y-127568093D01*
X121897951Y-127568093D01*
X122022645Y-127869157D01*
X122338694Y-128227729D01*
X122767905Y-128438059D01*
X122957000Y-128378867D01*
X122957000Y-127379000D01*
X123207000Y-127379000D01*
X123207000Y-128378867D01*
X123396095Y-128438059D01*
X123825306Y-128227729D01*
X124141355Y-127869157D01*
X124266049Y-127568093D01*
X124206323Y-127379000D01*
X123207000Y-127379000D01*
X122957000Y-127379000D01*
X121957677Y-127379000D01*
X121897951Y-127568093D01*
X100455000Y-127568093D01*
X100455000Y-126939907D01*
X121897951Y-126939907D01*
X121957677Y-127129000D01*
X122957000Y-127129000D01*
X122957000Y-126129133D01*
X123207000Y-126129133D01*
X123207000Y-127129000D01*
X124206323Y-127129000D01*
X124266049Y-126939907D01*
X124141355Y-126638843D01*
X123825306Y-126280271D01*
X123396095Y-126069941D01*
X123207000Y-126129133D01*
X122957000Y-126129133D01*
X122767905Y-126069941D01*
X122338694Y-126280271D01*
X122022645Y-126638843D01*
X121897951Y-126939907D01*
X100455000Y-126939907D01*
X100455000Y-124714000D01*
X121833001Y-124714000D01*
X121926249Y-125182787D01*
X122191795Y-125580206D01*
X122589214Y-125845752D01*
X123058001Y-125939000D01*
X123105999Y-125939000D01*
X123574786Y-125845752D01*
X123972205Y-125580206D01*
X124237751Y-125182787D01*
X124330999Y-124714000D01*
X124237751Y-124245213D01*
X123972205Y-123847794D01*
X123574786Y-123582248D01*
X123105999Y-123489000D01*
X123058001Y-123489000D01*
X122589214Y-123582248D01*
X122191795Y-123847794D01*
X121926249Y-124245213D01*
X121833001Y-124714000D01*
X100455000Y-124714000D01*
X100455000Y-123222077D01*
X120482883Y-123222077D01*
X120585429Y-123470257D01*
X120775144Y-123660303D01*
X121023145Y-123763283D01*
X121291677Y-123763517D01*
X121539857Y-123660971D01*
X121729903Y-123471256D01*
X121832883Y-123223255D01*
X121833117Y-122954723D01*
X121783000Y-122833431D01*
X121783000Y-122174000D01*
X121833001Y-122174000D01*
X121926249Y-122642787D01*
X122191795Y-123040206D01*
X122589214Y-123305752D01*
X123058001Y-123399000D01*
X123105999Y-123399000D01*
X123574786Y-123305752D01*
X123972205Y-123040206D01*
X124237751Y-122642787D01*
X124330999Y-122174000D01*
X124237751Y-121705213D01*
X123972205Y-121307794D01*
X123574786Y-121042248D01*
X123105999Y-120949000D01*
X123058001Y-120949000D01*
X122589214Y-121042248D01*
X122191795Y-121307794D01*
X121926249Y-121705213D01*
X121833001Y-122174000D01*
X121783000Y-122174000D01*
X121783000Y-120466884D01*
X121849654Y-120400230D01*
X121849654Y-120484000D01*
X121875802Y-120622966D01*
X121957931Y-120750599D01*
X122083246Y-120836223D01*
X122232000Y-120866346D01*
X123932000Y-120866346D01*
X124070966Y-120840198D01*
X124198599Y-120758069D01*
X124284223Y-120632754D01*
X124314346Y-120484000D01*
X124314346Y-118784000D01*
X124288198Y-118645034D01*
X124206069Y-118517401D01*
X124080754Y-118431777D01*
X123932000Y-118401654D01*
X122232000Y-118401654D01*
X122093034Y-118427802D01*
X121965401Y-118509931D01*
X121879777Y-118635246D01*
X121849654Y-118784000D01*
X121849654Y-119009000D01*
X121732005Y-119009000D01*
X121732000Y-119008999D01*
X121492823Y-119056575D01*
X121290058Y-119192058D01*
X121290056Y-119192061D01*
X120716058Y-119766058D01*
X120580575Y-119968823D01*
X120533000Y-120208000D01*
X120533000Y-122833415D01*
X120483117Y-122953545D01*
X120482883Y-123222077D01*
X100455000Y-123222077D01*
X100455000Y-117481677D01*
X106258883Y-117481677D01*
X106361429Y-117729857D01*
X106551144Y-117919903D01*
X106799145Y-118022883D01*
X107067677Y-118023117D01*
X107315857Y-117920571D01*
X107388555Y-117848000D01*
X112677143Y-117848000D01*
X112733200Y-117904155D01*
X112733200Y-119400047D01*
X112688245Y-119444924D01*
X112585265Y-119692925D01*
X112585031Y-119961457D01*
X112682400Y-120197108D01*
X112682400Y-120957366D01*
X112610497Y-121029144D01*
X112507517Y-121277145D01*
X112507283Y-121545677D01*
X112609829Y-121793857D01*
X112799544Y-121983903D01*
X113047545Y-122086883D01*
X113316077Y-122087117D01*
X113564257Y-121984571D01*
X113754303Y-121794856D01*
X113857283Y-121546855D01*
X113857517Y-121278323D01*
X113754971Y-121030143D01*
X113682400Y-120957445D01*
X113682400Y-120360026D01*
X113832051Y-120210636D01*
X113935031Y-119962635D01*
X113935265Y-119694103D01*
X113832719Y-119445923D01*
X113733200Y-119346230D01*
X113733200Y-117904234D01*
X113805103Y-117832456D01*
X113908083Y-117584455D01*
X113908317Y-117315923D01*
X113805771Y-117067743D01*
X113616056Y-116877697D01*
X113368055Y-116774717D01*
X113099523Y-116774483D01*
X112921598Y-116848000D01*
X107388634Y-116848000D01*
X107316856Y-116776097D01*
X107068855Y-116673117D01*
X106800323Y-116672883D01*
X106552143Y-116775429D01*
X106362097Y-116965144D01*
X106259117Y-117213145D01*
X106258883Y-117481677D01*
X100455000Y-117481677D01*
X100455000Y-115697000D01*
X119401001Y-115697000D01*
X119494249Y-116165787D01*
X119759795Y-116563206D01*
X120157214Y-116828752D01*
X120626001Y-116922000D01*
X120673999Y-116922000D01*
X121142786Y-116828752D01*
X121540205Y-116563206D01*
X121805751Y-116165787D01*
X121836521Y-116011093D01*
X122005951Y-116011093D01*
X122130645Y-116312157D01*
X122446694Y-116670729D01*
X122875905Y-116881059D01*
X123065000Y-116821867D01*
X123065000Y-115822000D01*
X123315000Y-115822000D01*
X123315000Y-116821867D01*
X123504095Y-116881059D01*
X123933306Y-116670729D01*
X124249355Y-116312157D01*
X124374049Y-116011093D01*
X124314323Y-115822000D01*
X123315000Y-115822000D01*
X123065000Y-115822000D01*
X122065677Y-115822000D01*
X122005951Y-116011093D01*
X121836521Y-116011093D01*
X121898999Y-115697000D01*
X121836522Y-115382907D01*
X122005951Y-115382907D01*
X122065677Y-115572000D01*
X123065000Y-115572000D01*
X123065000Y-114572133D01*
X123315000Y-114572133D01*
X123315000Y-115572000D01*
X124314323Y-115572000D01*
X124374049Y-115382907D01*
X124249355Y-115081843D01*
X123933306Y-114723271D01*
X123504095Y-114512941D01*
X123315000Y-114572133D01*
X123065000Y-114572133D01*
X122875905Y-114512941D01*
X122446694Y-114723271D01*
X122130645Y-115081843D01*
X122005951Y-115382907D01*
X121836522Y-115382907D01*
X121805751Y-115228213D01*
X121540205Y-114830794D01*
X121142786Y-114565248D01*
X120673999Y-114472000D01*
X120626001Y-114472000D01*
X120157214Y-114565248D01*
X119759795Y-114830794D01*
X119494249Y-115228213D01*
X119401001Y-115697000D01*
X100455000Y-115697000D01*
X100455000Y-113157000D01*
X119401001Y-113157000D01*
X119494249Y-113625787D01*
X119759795Y-114023206D01*
X120157214Y-114288752D01*
X120626001Y-114382000D01*
X120673999Y-114382000D01*
X121142786Y-114288752D01*
X121540205Y-114023206D01*
X121805751Y-113625787D01*
X121836521Y-113471093D01*
X122005951Y-113471093D01*
X122130645Y-113772157D01*
X122446694Y-114130729D01*
X122875905Y-114341059D01*
X123065000Y-114281867D01*
X123065000Y-113282000D01*
X123315000Y-113282000D01*
X123315000Y-114281867D01*
X123504095Y-114341059D01*
X123933306Y-114130729D01*
X124249355Y-113772157D01*
X124374049Y-113471093D01*
X124314323Y-113282000D01*
X123315000Y-113282000D01*
X123065000Y-113282000D01*
X122065677Y-113282000D01*
X122005951Y-113471093D01*
X121836521Y-113471093D01*
X121898999Y-113157000D01*
X121836522Y-112842907D01*
X122005951Y-112842907D01*
X122065677Y-113032000D01*
X123065000Y-113032000D01*
X123065000Y-112032133D01*
X123315000Y-112032133D01*
X123315000Y-113032000D01*
X124314323Y-113032000D01*
X124374049Y-112842907D01*
X124249355Y-112541843D01*
X123933306Y-112183271D01*
X123504095Y-111972941D01*
X123315000Y-112032133D01*
X123065000Y-112032133D01*
X122875905Y-111972941D01*
X122446694Y-112183271D01*
X122130645Y-112541843D01*
X122005951Y-112842907D01*
X121836522Y-112842907D01*
X121805751Y-112688213D01*
X121540205Y-112290794D01*
X121142786Y-112025248D01*
X120673999Y-111932000D01*
X120626001Y-111932000D01*
X120157214Y-112025248D01*
X119759795Y-112290794D01*
X119494249Y-112688213D01*
X119401001Y-113157000D01*
X100455000Y-113157000D01*
X100455000Y-110617000D01*
X119401001Y-110617000D01*
X119494249Y-111085787D01*
X119759795Y-111483206D01*
X120157214Y-111748752D01*
X120626001Y-111842000D01*
X120673999Y-111842000D01*
X121142786Y-111748752D01*
X121540205Y-111483206D01*
X121805751Y-111085787D01*
X121836521Y-110931093D01*
X122005951Y-110931093D01*
X122130645Y-111232157D01*
X122446694Y-111590729D01*
X122875905Y-111801059D01*
X123065000Y-111741867D01*
X123065000Y-110742000D01*
X123315000Y-110742000D01*
X123315000Y-111741867D01*
X123504095Y-111801059D01*
X123933306Y-111590729D01*
X124249355Y-111232157D01*
X124374049Y-110931093D01*
X124314323Y-110742000D01*
X123315000Y-110742000D01*
X123065000Y-110742000D01*
X122065677Y-110742000D01*
X122005951Y-110931093D01*
X121836521Y-110931093D01*
X121898999Y-110617000D01*
X121836522Y-110302907D01*
X122005951Y-110302907D01*
X122065677Y-110492000D01*
X123065000Y-110492000D01*
X123065000Y-109492133D01*
X123315000Y-109492133D01*
X123315000Y-110492000D01*
X124314323Y-110492000D01*
X124374049Y-110302907D01*
X124249355Y-110001843D01*
X123933306Y-109643271D01*
X123504095Y-109432941D01*
X123315000Y-109492133D01*
X123065000Y-109492133D01*
X122875905Y-109432941D01*
X122446694Y-109643271D01*
X122130645Y-110001843D01*
X122005951Y-110302907D01*
X121836522Y-110302907D01*
X121805751Y-110148213D01*
X121540205Y-109750794D01*
X121142786Y-109485248D01*
X120673999Y-109392000D01*
X120626001Y-109392000D01*
X120157214Y-109485248D01*
X119759795Y-109750794D01*
X119494249Y-110148213D01*
X119401001Y-110617000D01*
X100455000Y-110617000D01*
X100455000Y-107227000D01*
X119417654Y-107227000D01*
X119417654Y-108927000D01*
X119443802Y-109065966D01*
X119525931Y-109193599D01*
X119651246Y-109279223D01*
X119800000Y-109309346D01*
X121500000Y-109309346D01*
X121638966Y-109283198D01*
X121766599Y-109201069D01*
X121852223Y-109075754D01*
X121882346Y-108927000D01*
X121882346Y-108391093D01*
X122005951Y-108391093D01*
X122130645Y-108692157D01*
X122446694Y-109050729D01*
X122875905Y-109261059D01*
X123065000Y-109201867D01*
X123065000Y-108202000D01*
X123315000Y-108202000D01*
X123315000Y-109201867D01*
X123504095Y-109261059D01*
X123933306Y-109050729D01*
X124249355Y-108692157D01*
X124374049Y-108391093D01*
X124314323Y-108202000D01*
X123315000Y-108202000D01*
X123065000Y-108202000D01*
X122065677Y-108202000D01*
X122005951Y-108391093D01*
X121882346Y-108391093D01*
X121882346Y-107762907D01*
X122005951Y-107762907D01*
X122065677Y-107952000D01*
X123065000Y-107952000D01*
X123065000Y-106952133D01*
X123315000Y-106952133D01*
X123315000Y-107952000D01*
X124314323Y-107952000D01*
X124374049Y-107762907D01*
X124249355Y-107461843D01*
X123933306Y-107103271D01*
X123504095Y-106892941D01*
X123315000Y-106952133D01*
X123065000Y-106952133D01*
X122875905Y-106892941D01*
X122446694Y-107103271D01*
X122130645Y-107461843D01*
X122005951Y-107762907D01*
X121882346Y-107762907D01*
X121882346Y-107227000D01*
X121856198Y-107088034D01*
X121774069Y-106960401D01*
X121648754Y-106874777D01*
X121500000Y-106844654D01*
X119800000Y-106844654D01*
X119661034Y-106870802D01*
X119533401Y-106952931D01*
X119447777Y-107078246D01*
X119417654Y-107227000D01*
X100455000Y-107227000D01*
X100455000Y-104391128D01*
X103024657Y-104391128D01*
X103324700Y-105117286D01*
X103879791Y-105673348D01*
X104605425Y-105974657D01*
X105391128Y-105975343D01*
X106117286Y-105675300D01*
X106673348Y-105120209D01*
X106974657Y-104394575D01*
X106975343Y-103608872D01*
X106948539Y-103544000D01*
X109130654Y-103544000D01*
X109130654Y-105244000D01*
X109156802Y-105382966D01*
X109238931Y-105510599D01*
X109364246Y-105596223D01*
X109513000Y-105626346D01*
X111213000Y-105626346D01*
X111351966Y-105600198D01*
X111479599Y-105518069D01*
X111565223Y-105392754D01*
X111595346Y-105244000D01*
X111595346Y-104370001D01*
X111678000Y-104370001D01*
X111678000Y-104417999D01*
X111771248Y-104886786D01*
X112036794Y-105284205D01*
X112434213Y-105549751D01*
X112903000Y-105642999D01*
X113371787Y-105549751D01*
X113769206Y-105284205D01*
X114034752Y-104886786D01*
X114128000Y-104417999D01*
X114128000Y-104370001D01*
X114218000Y-104370001D01*
X114218000Y-104417999D01*
X114311248Y-104886786D01*
X114576794Y-105284205D01*
X114974213Y-105549751D01*
X115443000Y-105642999D01*
X115911787Y-105549751D01*
X116309206Y-105284205D01*
X116574752Y-104886786D01*
X116668000Y-104417999D01*
X116668000Y-104370001D01*
X116758000Y-104370001D01*
X116758000Y-104417999D01*
X116851248Y-104886786D01*
X117116794Y-105284205D01*
X117514213Y-105549751D01*
X117983000Y-105642999D01*
X118451787Y-105549751D01*
X118849206Y-105284205D01*
X119114752Y-104886786D01*
X119208000Y-104417999D01*
X119208000Y-104370001D01*
X119114752Y-103901214D01*
X118849206Y-103503795D01*
X118451787Y-103238249D01*
X117983000Y-103145001D01*
X117514213Y-103238249D01*
X117116794Y-103503795D01*
X116851248Y-103901214D01*
X116758000Y-104370001D01*
X116668000Y-104370001D01*
X116574752Y-103901214D01*
X116309206Y-103503795D01*
X115911787Y-103238249D01*
X115443000Y-103145001D01*
X114974213Y-103238249D01*
X114576794Y-103503795D01*
X114311248Y-103901214D01*
X114218000Y-104370001D01*
X114128000Y-104370001D01*
X114034752Y-103901214D01*
X113769206Y-103503795D01*
X113371787Y-103238249D01*
X112903000Y-103145001D01*
X112434213Y-103238249D01*
X112036794Y-103503795D01*
X111771248Y-103901214D01*
X111678000Y-104370001D01*
X111595346Y-104370001D01*
X111595346Y-103544000D01*
X111569198Y-103405034D01*
X111487069Y-103277401D01*
X111361754Y-103191777D01*
X111213000Y-103161654D01*
X109513000Y-103161654D01*
X109374034Y-103187802D01*
X109246401Y-103269931D01*
X109160777Y-103395246D01*
X109130654Y-103544000D01*
X106948539Y-103544000D01*
X106675300Y-102882714D01*
X106120209Y-102326652D01*
X105738361Y-102168095D01*
X109178941Y-102168095D01*
X109389271Y-102597306D01*
X109747843Y-102913355D01*
X110048907Y-103038049D01*
X110238000Y-102978323D01*
X110238000Y-101979000D01*
X110488000Y-101979000D01*
X110488000Y-102978323D01*
X110677093Y-103038049D01*
X110978157Y-102913355D01*
X111336729Y-102597306D01*
X111547059Y-102168095D01*
X111718941Y-102168095D01*
X111929271Y-102597306D01*
X112287843Y-102913355D01*
X112588907Y-103038049D01*
X112778000Y-102978323D01*
X112778000Y-101979000D01*
X113028000Y-101979000D01*
X113028000Y-102978323D01*
X113217093Y-103038049D01*
X113518157Y-102913355D01*
X113876729Y-102597306D01*
X114087059Y-102168095D01*
X114258941Y-102168095D01*
X114469271Y-102597306D01*
X114827843Y-102913355D01*
X115128907Y-103038049D01*
X115318000Y-102978323D01*
X115318000Y-101979000D01*
X115568000Y-101979000D01*
X115568000Y-102978323D01*
X115757093Y-103038049D01*
X116058157Y-102913355D01*
X116416729Y-102597306D01*
X116627059Y-102168095D01*
X116798941Y-102168095D01*
X117009271Y-102597306D01*
X117367843Y-102913355D01*
X117668907Y-103038049D01*
X117858000Y-102978323D01*
X117858000Y-101979000D01*
X118108000Y-101979000D01*
X118108000Y-102978323D01*
X118297093Y-103038049D01*
X118598157Y-102913355D01*
X118956729Y-102597306D01*
X119167059Y-102168095D01*
X119107867Y-101979000D01*
X118108000Y-101979000D01*
X117858000Y-101979000D01*
X116858133Y-101979000D01*
X116798941Y-102168095D01*
X116627059Y-102168095D01*
X116567867Y-101979000D01*
X115568000Y-101979000D01*
X115318000Y-101979000D01*
X114318133Y-101979000D01*
X114258941Y-102168095D01*
X114087059Y-102168095D01*
X114027867Y-101979000D01*
X113028000Y-101979000D01*
X112778000Y-101979000D01*
X111778133Y-101979000D01*
X111718941Y-102168095D01*
X111547059Y-102168095D01*
X111487867Y-101979000D01*
X110488000Y-101979000D01*
X110238000Y-101979000D01*
X109238133Y-101979000D01*
X109178941Y-102168095D01*
X105738361Y-102168095D01*
X105394575Y-102025343D01*
X104608872Y-102024657D01*
X103882714Y-102324700D01*
X103326652Y-102879791D01*
X103025343Y-103605425D01*
X103024657Y-104391128D01*
X100455000Y-104391128D01*
X100455000Y-101539905D01*
X109178941Y-101539905D01*
X109238133Y-101729000D01*
X110238000Y-101729000D01*
X110238000Y-100729677D01*
X110488000Y-100729677D01*
X110488000Y-101729000D01*
X111487867Y-101729000D01*
X111547059Y-101539905D01*
X111718941Y-101539905D01*
X111778133Y-101729000D01*
X112778000Y-101729000D01*
X112778000Y-100729677D01*
X113028000Y-100729677D01*
X113028000Y-101729000D01*
X114027867Y-101729000D01*
X114087059Y-101539905D01*
X114258941Y-101539905D01*
X114318133Y-101729000D01*
X115318000Y-101729000D01*
X115318000Y-100729677D01*
X115568000Y-100729677D01*
X115568000Y-101729000D01*
X116567867Y-101729000D01*
X116627059Y-101539905D01*
X116798941Y-101539905D01*
X116858133Y-101729000D01*
X117858000Y-101729000D01*
X117858000Y-100729677D01*
X118108000Y-100729677D01*
X118108000Y-101729000D01*
X119107867Y-101729000D01*
X119167059Y-101539905D01*
X118956729Y-101110694D01*
X118598157Y-100794645D01*
X118297093Y-100669951D01*
X118108000Y-100729677D01*
X117858000Y-100729677D01*
X117668907Y-100669951D01*
X117367843Y-100794645D01*
X117009271Y-101110694D01*
X116798941Y-101539905D01*
X116627059Y-101539905D01*
X116416729Y-101110694D01*
X116058157Y-100794645D01*
X115757093Y-100669951D01*
X115568000Y-100729677D01*
X115318000Y-100729677D01*
X115128907Y-100669951D01*
X114827843Y-100794645D01*
X114469271Y-101110694D01*
X114258941Y-101539905D01*
X114087059Y-101539905D01*
X113876729Y-101110694D01*
X113518157Y-100794645D01*
X113217093Y-100669951D01*
X113028000Y-100729677D01*
X112778000Y-100729677D01*
X112588907Y-100669951D01*
X112287843Y-100794645D01*
X111929271Y-101110694D01*
X111718941Y-101539905D01*
X111547059Y-101539905D01*
X111336729Y-101110694D01*
X110978157Y-100794645D01*
X110677093Y-100669951D01*
X110488000Y-100729677D01*
X110238000Y-100729677D01*
X110048907Y-100669951D01*
X109747843Y-100794645D01*
X109389271Y-101110694D01*
X109178941Y-101539905D01*
X100455000Y-101539905D01*
X100455000Y-100455000D01*
X124550000Y-100455000D01*
X124550000Y-149481000D01*
X124550000Y-149481000D01*
G37*
X124550000Y-149481000D02*
X100455000Y-149481000D01*
X100455000Y-148294495D01*
X109305941Y-148294495D01*
X109516271Y-148723706D01*
X109874843Y-149039755D01*
X110175907Y-149164449D01*
X110365000Y-149104723D01*
X110365000Y-148105400D01*
X110615000Y-148105400D01*
X110615000Y-149104723D01*
X110804093Y-149164449D01*
X111105157Y-149039755D01*
X111463729Y-148723706D01*
X111674059Y-148294495D01*
X111845941Y-148294495D01*
X112056271Y-148723706D01*
X112414843Y-149039755D01*
X112715907Y-149164449D01*
X112905000Y-149104723D01*
X112905000Y-148105400D01*
X113155000Y-148105400D01*
X113155000Y-149104723D01*
X113344093Y-149164449D01*
X113645157Y-149039755D01*
X114003729Y-148723706D01*
X114214059Y-148294495D01*
X114385941Y-148294495D01*
X114596271Y-148723706D01*
X114954843Y-149039755D01*
X115255907Y-149164449D01*
X115445000Y-149104723D01*
X115445000Y-148105400D01*
X115695000Y-148105400D01*
X115695000Y-149104723D01*
X115884093Y-149164449D01*
X116185157Y-149039755D01*
X116543729Y-148723706D01*
X116754059Y-148294495D01*
X116925941Y-148294495D01*
X117136271Y-148723706D01*
X117494843Y-149039755D01*
X117795907Y-149164449D01*
X117985000Y-149104723D01*
X117985000Y-148105400D01*
X118235000Y-148105400D01*
X118235000Y-149104723D01*
X118424093Y-149164449D01*
X118725157Y-149039755D01*
X119083729Y-148723706D01*
X119294059Y-148294495D01*
X119234867Y-148105400D01*
X118235000Y-148105400D01*
X117985000Y-148105400D01*
X116985133Y-148105400D01*
X116925941Y-148294495D01*
X116754059Y-148294495D01*
X116694867Y-148105400D01*
X115695000Y-148105400D01*
X115445000Y-148105400D01*
X114445133Y-148105400D01*
X114385941Y-148294495D01*
X114214059Y-148294495D01*
X114154867Y-148105400D01*
X113155000Y-148105400D01*
X112905000Y-148105400D01*
X111905133Y-148105400D01*
X111845941Y-148294495D01*
X111674059Y-148294495D01*
X111614867Y-148105400D01*
X110615000Y-148105400D01*
X110365000Y-148105400D01*
X109365133Y-148105400D01*
X109305941Y-148294495D01*
X100455000Y-148294495D01*
X100455000Y-146391128D01*
X103024657Y-146391128D01*
X103324700Y-147117286D01*
X103879791Y-147673348D01*
X104605425Y-147974657D01*
X105391128Y-147975343D01*
X106117286Y-147675300D01*
X106126296Y-147666305D01*
X109305941Y-147666305D01*
X109365133Y-147855400D01*
X110365000Y-147855400D01*
X110365000Y-146856077D01*
X110615000Y-146856077D01*
X110615000Y-147855400D01*
X111614867Y-147855400D01*
X111674059Y-147666305D01*
X111845941Y-147666305D01*
X111905133Y-147855400D01*
X112905000Y-147855400D01*
X112905000Y-146856077D01*
X113155000Y-146856077D01*
X113155000Y-147855400D01*
X114154867Y-147855400D01*
X114214059Y-147666305D01*
X114385941Y-147666305D01*
X114445133Y-147855400D01*
X115445000Y-147855400D01*
X115445000Y-146856077D01*
X115695000Y-146856077D01*
X115695000Y-147855400D01*
X116694867Y-147855400D01*
X116754059Y-147666305D01*
X116925941Y-147666305D01*
X116985133Y-147855400D01*
X117985000Y-147855400D01*
X117985000Y-146856077D01*
X118235000Y-146856077D01*
X118235000Y-147855400D01*
X119234867Y-147855400D01*
X119294059Y-147666305D01*
X119083729Y-147237094D01*
X118725157Y-146921045D01*
X118424093Y-146796351D01*
X118235000Y-146856077D01*
X117985000Y-146856077D01*
X117795907Y-146796351D01*
X117494843Y-146921045D01*
X117136271Y-147237094D01*
X116925941Y-147666305D01*
X116754059Y-147666305D01*
X116543729Y-147237094D01*
X116185157Y-146921045D01*
X115884093Y-146796351D01*
X115695000Y-146856077D01*
X115445000Y-146856077D01*
X115255907Y-146796351D01*
X114954843Y-146921045D01*
X114596271Y-147237094D01*
X114385941Y-147666305D01*
X114214059Y-147666305D01*
X114003729Y-147237094D01*
X113645157Y-146921045D01*
X113344093Y-146796351D01*
X113155000Y-146856077D01*
X112905000Y-146856077D01*
X112715907Y-146796351D01*
X112414843Y-146921045D01*
X112056271Y-147237094D01*
X111845941Y-147666305D01*
X111674059Y-147666305D01*
X111463729Y-147237094D01*
X111105157Y-146921045D01*
X110804093Y-146796351D01*
X110615000Y-146856077D01*
X110365000Y-146856077D01*
X110175907Y-146796351D01*
X109874843Y-146921045D01*
X109516271Y-147237094D01*
X109305941Y-147666305D01*
X106126296Y-147666305D01*
X106673348Y-147120209D01*
X106974657Y-146394575D01*
X106975343Y-145608872D01*
X106895816Y-145416401D01*
X109265000Y-145416401D01*
X109265000Y-145464399D01*
X109358248Y-145933186D01*
X109623794Y-146330605D01*
X110021213Y-146596151D01*
X110490000Y-146689399D01*
X110958787Y-146596151D01*
X111356206Y-146330605D01*
X111621752Y-145933186D01*
X111715000Y-145464399D01*
X111715000Y-145416401D01*
X111805000Y-145416401D01*
X111805000Y-145464399D01*
X111898248Y-145933186D01*
X112163794Y-146330605D01*
X112561213Y-146596151D01*
X113030000Y-146689399D01*
X113498787Y-146596151D01*
X113896206Y-146330605D01*
X114161752Y-145933186D01*
X114255000Y-145464399D01*
X114255000Y-145416401D01*
X114345000Y-145416401D01*
X114345000Y-145464399D01*
X114438248Y-145933186D01*
X114703794Y-146330605D01*
X115101213Y-146596151D01*
X115570000Y-146689399D01*
X116038787Y-146596151D01*
X116436206Y-146330605D01*
X116701752Y-145933186D01*
X116795000Y-145464399D01*
X116795000Y-145416401D01*
X116701752Y-144947614D01*
X116463071Y-144590400D01*
X116877654Y-144590400D01*
X116877654Y-146290400D01*
X116903802Y-146429366D01*
X116985931Y-146556999D01*
X117111246Y-146642623D01*
X117260000Y-146672746D01*
X118960000Y-146672746D01*
X119098966Y-146646598D01*
X119226599Y-146564469D01*
X119312223Y-146439154D01*
X119342346Y-146290400D01*
X119342346Y-144590400D01*
X119316198Y-144451434D01*
X119234069Y-144323801D01*
X119108754Y-144238177D01*
X118960000Y-144208054D01*
X117260000Y-144208054D01*
X117121034Y-144234202D01*
X116993401Y-144316331D01*
X116907777Y-144441646D01*
X116877654Y-144590400D01*
X116463071Y-144590400D01*
X116436206Y-144550195D01*
X116038787Y-144284649D01*
X115570000Y-144191401D01*
X115101213Y-144284649D01*
X114703794Y-144550195D01*
X114438248Y-144947614D01*
X114345000Y-145416401D01*
X114255000Y-145416401D01*
X114161752Y-144947614D01*
X113896206Y-144550195D01*
X113498787Y-144284649D01*
X113030000Y-144191401D01*
X112561213Y-144284649D01*
X112163794Y-144550195D01*
X111898248Y-144947614D01*
X111805000Y-145416401D01*
X111715000Y-145416401D01*
X111621752Y-144947614D01*
X111356206Y-144550195D01*
X110958787Y-144284649D01*
X110490000Y-144191401D01*
X110021213Y-144284649D01*
X109623794Y-144550195D01*
X109358248Y-144947614D01*
X109265000Y-145416401D01*
X106895816Y-145416401D01*
X106675300Y-144882714D01*
X106120209Y-144326652D01*
X105394575Y-144025343D01*
X104608872Y-144024657D01*
X103882714Y-144324700D01*
X103326652Y-144879791D01*
X103025343Y-145605425D01*
X103024657Y-146391128D01*
X100455000Y-146391128D01*
X100455000Y-140620000D01*
X118751001Y-140620000D01*
X118844249Y-141088787D01*
X119109795Y-141486206D01*
X119507214Y-141751752D01*
X119976001Y-141845000D01*
X120023999Y-141845000D01*
X120492786Y-141751752D01*
X120890205Y-141486206D01*
X121155751Y-141088787D01*
X121186521Y-140934093D01*
X121355951Y-140934093D01*
X121480645Y-141235157D01*
X121796694Y-141593729D01*
X122225905Y-141804059D01*
X122415000Y-141744867D01*
X122415000Y-140745000D01*
X122665000Y-140745000D01*
X122665000Y-141744867D01*
X122854095Y-141804059D01*
X123283306Y-141593729D01*
X123599355Y-141235157D01*
X123724049Y-140934093D01*
X123664323Y-140745000D01*
X122665000Y-140745000D01*
X122415000Y-140745000D01*
X121415677Y-140745000D01*
X121355951Y-140934093D01*
X121186521Y-140934093D01*
X121248999Y-140620000D01*
X121186522Y-140305907D01*
X121355951Y-140305907D01*
X121415677Y-140495000D01*
X122415000Y-140495000D01*
X122415000Y-139495133D01*
X122665000Y-139495133D01*
X122665000Y-140495000D01*
X123664323Y-140495000D01*
X123724049Y-140305907D01*
X123599355Y-140004843D01*
X123283306Y-139646271D01*
X122854095Y-139435941D01*
X122665000Y-139495133D01*
X122415000Y-139495133D01*
X122225905Y-139435941D01*
X121796694Y-139646271D01*
X121480645Y-140004843D01*
X121355951Y-140305907D01*
X121186522Y-140305907D01*
X121155751Y-140151213D01*
X120890205Y-139753794D01*
X120492786Y-139488248D01*
X120023999Y-139395000D01*
X119976001Y-139395000D01*
X119507214Y-139488248D01*
X119109795Y-139753794D01*
X118844249Y-140151213D01*
X118751001Y-140620000D01*
X100455000Y-140620000D01*
X100455000Y-130994477D01*
X103871283Y-130994477D01*
X103973829Y-131242657D01*
X104046400Y-131315355D01*
X104046400Y-137314966D01*
X103974497Y-137386744D01*
X103871517Y-137634745D01*
X103871283Y-137903277D01*
X103973829Y-138151457D01*
X104163544Y-138341503D01*
X104411545Y-138444483D01*
X104680077Y-138444717D01*
X104785692Y-138401078D01*
X104785683Y-138411277D01*
X104888229Y-138659457D01*
X105077944Y-138849503D01*
X105325945Y-138952483D01*
X105594477Y-138952717D01*
X105842657Y-138850171D01*
X106032703Y-138660456D01*
X106135683Y-138412455D01*
X106135917Y-138143923D01*
X106109505Y-138080000D01*
X118751001Y-138080000D01*
X118844249Y-138548787D01*
X119109795Y-138946206D01*
X119507214Y-139211752D01*
X119976001Y-139305000D01*
X120023999Y-139305000D01*
X120492786Y-139211752D01*
X120890205Y-138946206D01*
X121155751Y-138548787D01*
X121186521Y-138394093D01*
X121355951Y-138394093D01*
X121480645Y-138695157D01*
X121796694Y-139053729D01*
X122225905Y-139264059D01*
X122415000Y-139204867D01*
X122415000Y-138205000D01*
X122665000Y-138205000D01*
X122665000Y-139204867D01*
X122854095Y-139264059D01*
X123283306Y-139053729D01*
X123599355Y-138695157D01*
X123724049Y-138394093D01*
X123664323Y-138205000D01*
X122665000Y-138205000D01*
X122415000Y-138205000D01*
X121415677Y-138205000D01*
X121355951Y-138394093D01*
X121186521Y-138394093D01*
X121248999Y-138080000D01*
X121186522Y-137765907D01*
X121355951Y-137765907D01*
X121415677Y-137955000D01*
X122415000Y-137955000D01*
X122415000Y-136955133D01*
X122665000Y-136955133D01*
X122665000Y-137955000D01*
X123664323Y-137955000D01*
X123724049Y-137765907D01*
X123599355Y-137464843D01*
X123283306Y-137106271D01*
X122854095Y-136895941D01*
X122665000Y-136955133D01*
X122415000Y-136955133D01*
X122225905Y-136895941D01*
X121796694Y-137106271D01*
X121480645Y-137464843D01*
X121355951Y-137765907D01*
X121186522Y-137765907D01*
X121155751Y-137611213D01*
X120890205Y-137213794D01*
X120492786Y-136948248D01*
X120023999Y-136855000D01*
X119976001Y-136855000D01*
X119507214Y-136948248D01*
X119109795Y-137213794D01*
X118844249Y-137611213D01*
X118751001Y-138080000D01*
X106109505Y-138080000D01*
X106033371Y-137895743D01*
X105960800Y-137823045D01*
X105960800Y-137274087D01*
X106087945Y-137326883D01*
X106356477Y-137327117D01*
X106604657Y-137224571D01*
X106794703Y-137034856D01*
X106897683Y-136786855D01*
X106897917Y-136518323D01*
X106795371Y-136270143D01*
X106722800Y-136197445D01*
X106722800Y-135540000D01*
X118751001Y-135540000D01*
X118844249Y-136008787D01*
X119109795Y-136406206D01*
X119507214Y-136671752D01*
X119976001Y-136765000D01*
X120023999Y-136765000D01*
X120492786Y-136671752D01*
X120890205Y-136406206D01*
X121155751Y-136008787D01*
X121186521Y-135854093D01*
X121355951Y-135854093D01*
X121480645Y-136155157D01*
X121796694Y-136513729D01*
X122225905Y-136724059D01*
X122415000Y-136664867D01*
X122415000Y-135665000D01*
X122665000Y-135665000D01*
X122665000Y-136664867D01*
X122854095Y-136724059D01*
X123283306Y-136513729D01*
X123599355Y-136155157D01*
X123724049Y-135854093D01*
X123664323Y-135665000D01*
X122665000Y-135665000D01*
X122415000Y-135665000D01*
X121415677Y-135665000D01*
X121355951Y-135854093D01*
X121186521Y-135854093D01*
X121248999Y-135540000D01*
X121186522Y-135225907D01*
X121355951Y-135225907D01*
X121415677Y-135415000D01*
X122415000Y-135415000D01*
X122415000Y-134415133D01*
X122665000Y-134415133D01*
X122665000Y-135415000D01*
X123664323Y-135415000D01*
X123724049Y-135225907D01*
X123599355Y-134924843D01*
X123283306Y-134566271D01*
X122854095Y-134355941D01*
X122665000Y-134415133D01*
X122415000Y-134415133D01*
X122225905Y-134355941D01*
X121796694Y-134566271D01*
X121480645Y-134924843D01*
X121355951Y-135225907D01*
X121186522Y-135225907D01*
X121155751Y-135071213D01*
X120890205Y-134673794D01*
X120492786Y-134408248D01*
X120023999Y-134315000D01*
X119976001Y-134315000D01*
X119507214Y-134408248D01*
X119109795Y-134673794D01*
X118844249Y-135071213D01*
X118751001Y-135540000D01*
X106722800Y-135540000D01*
X106722800Y-133703034D01*
X106794703Y-133631256D01*
X106897683Y-133383255D01*
X106897917Y-133114723D01*
X106795371Y-132866543D01*
X106605656Y-132676497D01*
X106357655Y-132573517D01*
X106089123Y-132573283D01*
X105960800Y-132626305D01*
X105960800Y-132150000D01*
X118767654Y-132150000D01*
X118767654Y-133850000D01*
X118793802Y-133988966D01*
X118875931Y-134116599D01*
X119001246Y-134202223D01*
X119150000Y-134232346D01*
X120850000Y-134232346D01*
X120988966Y-134206198D01*
X121116599Y-134124069D01*
X121202223Y-133998754D01*
X121232346Y-133850000D01*
X121232346Y-133314093D01*
X121355951Y-133314093D01*
X121480645Y-133615157D01*
X121796694Y-133973729D01*
X122225905Y-134184059D01*
X122415000Y-134124867D01*
X122415000Y-133125000D01*
X122665000Y-133125000D01*
X122665000Y-134124867D01*
X122854095Y-134184059D01*
X123283306Y-133973729D01*
X123599355Y-133615157D01*
X123724049Y-133314093D01*
X123664323Y-133125000D01*
X122665000Y-133125000D01*
X122415000Y-133125000D01*
X121415677Y-133125000D01*
X121355951Y-133314093D01*
X121232346Y-133314093D01*
X121232346Y-132685907D01*
X121355951Y-132685907D01*
X121415677Y-132875000D01*
X122415000Y-132875000D01*
X122415000Y-131875133D01*
X122665000Y-131875133D01*
X122665000Y-132875000D01*
X123664323Y-132875000D01*
X123724049Y-132685907D01*
X123599355Y-132384843D01*
X123283306Y-132026271D01*
X122854095Y-131815941D01*
X122665000Y-131875133D01*
X122415000Y-131875133D01*
X122225905Y-131815941D01*
X121796694Y-132026271D01*
X121480645Y-132384843D01*
X121355951Y-132685907D01*
X121232346Y-132685907D01*
X121232346Y-132150000D01*
X121206198Y-132011034D01*
X121124069Y-131883401D01*
X120998754Y-131797777D01*
X120850000Y-131767654D01*
X119150000Y-131767654D01*
X119011034Y-131793802D01*
X118883401Y-131875931D01*
X118797777Y-132001246D01*
X118767654Y-132150000D01*
X105960800Y-132150000D01*
X105960800Y-131697034D01*
X106032703Y-131625256D01*
X106135683Y-131377255D01*
X106135917Y-131108723D01*
X106033371Y-130860543D01*
X105843656Y-130670497D01*
X105595655Y-130567517D01*
X105327123Y-130567283D01*
X105180504Y-130627865D01*
X105118971Y-130478943D01*
X104929256Y-130288897D01*
X104681255Y-130185917D01*
X104412723Y-130185683D01*
X104164543Y-130288229D01*
X103974497Y-130477944D01*
X103871517Y-130725945D01*
X103871283Y-130994477D01*
X100455000Y-130994477D01*
X100455000Y-127568093D01*
X121897951Y-127568093D01*
X122022645Y-127869157D01*
X122338694Y-128227729D01*
X122767905Y-128438059D01*
X122957000Y-128378867D01*
X122957000Y-127379000D01*
X123207000Y-127379000D01*
X123207000Y-128378867D01*
X123396095Y-128438059D01*
X123825306Y-128227729D01*
X124141355Y-127869157D01*
X124266049Y-127568093D01*
X124206323Y-127379000D01*
X123207000Y-127379000D01*
X122957000Y-127379000D01*
X121957677Y-127379000D01*
X121897951Y-127568093D01*
X100455000Y-127568093D01*
X100455000Y-126939907D01*
X121897951Y-126939907D01*
X121957677Y-127129000D01*
X122957000Y-127129000D01*
X122957000Y-126129133D01*
X123207000Y-126129133D01*
X123207000Y-127129000D01*
X124206323Y-127129000D01*
X124266049Y-126939907D01*
X124141355Y-126638843D01*
X123825306Y-126280271D01*
X123396095Y-126069941D01*
X123207000Y-126129133D01*
X122957000Y-126129133D01*
X122767905Y-126069941D01*
X122338694Y-126280271D01*
X122022645Y-126638843D01*
X121897951Y-126939907D01*
X100455000Y-126939907D01*
X100455000Y-124714000D01*
X121833001Y-124714000D01*
X121926249Y-125182787D01*
X122191795Y-125580206D01*
X122589214Y-125845752D01*
X123058001Y-125939000D01*
X123105999Y-125939000D01*
X123574786Y-125845752D01*
X123972205Y-125580206D01*
X124237751Y-125182787D01*
X124330999Y-124714000D01*
X124237751Y-124245213D01*
X123972205Y-123847794D01*
X123574786Y-123582248D01*
X123105999Y-123489000D01*
X123058001Y-123489000D01*
X122589214Y-123582248D01*
X122191795Y-123847794D01*
X121926249Y-124245213D01*
X121833001Y-124714000D01*
X100455000Y-124714000D01*
X100455000Y-123222077D01*
X120482883Y-123222077D01*
X120585429Y-123470257D01*
X120775144Y-123660303D01*
X121023145Y-123763283D01*
X121291677Y-123763517D01*
X121539857Y-123660971D01*
X121729903Y-123471256D01*
X121832883Y-123223255D01*
X121833117Y-122954723D01*
X121783000Y-122833431D01*
X121783000Y-122174000D01*
X121833001Y-122174000D01*
X121926249Y-122642787D01*
X122191795Y-123040206D01*
X122589214Y-123305752D01*
X123058001Y-123399000D01*
X123105999Y-123399000D01*
X123574786Y-123305752D01*
X123972205Y-123040206D01*
X124237751Y-122642787D01*
X124330999Y-122174000D01*
X124237751Y-121705213D01*
X123972205Y-121307794D01*
X123574786Y-121042248D01*
X123105999Y-120949000D01*
X123058001Y-120949000D01*
X122589214Y-121042248D01*
X122191795Y-121307794D01*
X121926249Y-121705213D01*
X121833001Y-122174000D01*
X121783000Y-122174000D01*
X121783000Y-120466884D01*
X121849654Y-120400230D01*
X121849654Y-120484000D01*
X121875802Y-120622966D01*
X121957931Y-120750599D01*
X122083246Y-120836223D01*
X122232000Y-120866346D01*
X123932000Y-120866346D01*
X124070966Y-120840198D01*
X124198599Y-120758069D01*
X124284223Y-120632754D01*
X124314346Y-120484000D01*
X124314346Y-118784000D01*
X124288198Y-118645034D01*
X124206069Y-118517401D01*
X124080754Y-118431777D01*
X123932000Y-118401654D01*
X122232000Y-118401654D01*
X122093034Y-118427802D01*
X121965401Y-118509931D01*
X121879777Y-118635246D01*
X121849654Y-118784000D01*
X121849654Y-119009000D01*
X121732005Y-119009000D01*
X121732000Y-119008999D01*
X121492823Y-119056575D01*
X121290058Y-119192058D01*
X121290056Y-119192061D01*
X120716058Y-119766058D01*
X120580575Y-119968823D01*
X120533000Y-120208000D01*
X120533000Y-122833415D01*
X120483117Y-122953545D01*
X120482883Y-123222077D01*
X100455000Y-123222077D01*
X100455000Y-117481677D01*
X106258883Y-117481677D01*
X106361429Y-117729857D01*
X106551144Y-117919903D01*
X106799145Y-118022883D01*
X107067677Y-118023117D01*
X107315857Y-117920571D01*
X107388555Y-117848000D01*
X112677143Y-117848000D01*
X112733200Y-117904155D01*
X112733200Y-119400047D01*
X112688245Y-119444924D01*
X112585265Y-119692925D01*
X112585031Y-119961457D01*
X112682400Y-120197108D01*
X112682400Y-120957366D01*
X112610497Y-121029144D01*
X112507517Y-121277145D01*
X112507283Y-121545677D01*
X112609829Y-121793857D01*
X112799544Y-121983903D01*
X113047545Y-122086883D01*
X113316077Y-122087117D01*
X113564257Y-121984571D01*
X113754303Y-121794856D01*
X113857283Y-121546855D01*
X113857517Y-121278323D01*
X113754971Y-121030143D01*
X113682400Y-120957445D01*
X113682400Y-120360026D01*
X113832051Y-120210636D01*
X113935031Y-119962635D01*
X113935265Y-119694103D01*
X113832719Y-119445923D01*
X113733200Y-119346230D01*
X113733200Y-117904234D01*
X113805103Y-117832456D01*
X113908083Y-117584455D01*
X113908317Y-117315923D01*
X113805771Y-117067743D01*
X113616056Y-116877697D01*
X113368055Y-116774717D01*
X113099523Y-116774483D01*
X112921598Y-116848000D01*
X107388634Y-116848000D01*
X107316856Y-116776097D01*
X107068855Y-116673117D01*
X106800323Y-116672883D01*
X106552143Y-116775429D01*
X106362097Y-116965144D01*
X106259117Y-117213145D01*
X106258883Y-117481677D01*
X100455000Y-117481677D01*
X100455000Y-115697000D01*
X119401001Y-115697000D01*
X119494249Y-116165787D01*
X119759795Y-116563206D01*
X120157214Y-116828752D01*
X120626001Y-116922000D01*
X120673999Y-116922000D01*
X121142786Y-116828752D01*
X121540205Y-116563206D01*
X121805751Y-116165787D01*
X121836521Y-116011093D01*
X122005951Y-116011093D01*
X122130645Y-116312157D01*
X122446694Y-116670729D01*
X122875905Y-116881059D01*
X123065000Y-116821867D01*
X123065000Y-115822000D01*
X123315000Y-115822000D01*
X123315000Y-116821867D01*
X123504095Y-116881059D01*
X123933306Y-116670729D01*
X124249355Y-116312157D01*
X124374049Y-116011093D01*
X124314323Y-115822000D01*
X123315000Y-115822000D01*
X123065000Y-115822000D01*
X122065677Y-115822000D01*
X122005951Y-116011093D01*
X121836521Y-116011093D01*
X121898999Y-115697000D01*
X121836522Y-115382907D01*
X122005951Y-115382907D01*
X122065677Y-115572000D01*
X123065000Y-115572000D01*
X123065000Y-114572133D01*
X123315000Y-114572133D01*
X123315000Y-115572000D01*
X124314323Y-115572000D01*
X124374049Y-115382907D01*
X124249355Y-115081843D01*
X123933306Y-114723271D01*
X123504095Y-114512941D01*
X123315000Y-114572133D01*
X123065000Y-114572133D01*
X122875905Y-114512941D01*
X122446694Y-114723271D01*
X122130645Y-115081843D01*
X122005951Y-115382907D01*
X121836522Y-115382907D01*
X121805751Y-115228213D01*
X121540205Y-114830794D01*
X121142786Y-114565248D01*
X120673999Y-114472000D01*
X120626001Y-114472000D01*
X120157214Y-114565248D01*
X119759795Y-114830794D01*
X119494249Y-115228213D01*
X119401001Y-115697000D01*
X100455000Y-115697000D01*
X100455000Y-113157000D01*
X119401001Y-113157000D01*
X119494249Y-113625787D01*
X119759795Y-114023206D01*
X120157214Y-114288752D01*
X120626001Y-114382000D01*
X120673999Y-114382000D01*
X121142786Y-114288752D01*
X121540205Y-114023206D01*
X121805751Y-113625787D01*
X121836521Y-113471093D01*
X122005951Y-113471093D01*
X122130645Y-113772157D01*
X122446694Y-114130729D01*
X122875905Y-114341059D01*
X123065000Y-114281867D01*
X123065000Y-113282000D01*
X123315000Y-113282000D01*
X123315000Y-114281867D01*
X123504095Y-114341059D01*
X123933306Y-114130729D01*
X124249355Y-113772157D01*
X124374049Y-113471093D01*
X124314323Y-113282000D01*
X123315000Y-113282000D01*
X123065000Y-113282000D01*
X122065677Y-113282000D01*
X122005951Y-113471093D01*
X121836521Y-113471093D01*
X121898999Y-113157000D01*
X121836522Y-112842907D01*
X122005951Y-112842907D01*
X122065677Y-113032000D01*
X123065000Y-113032000D01*
X123065000Y-112032133D01*
X123315000Y-112032133D01*
X123315000Y-113032000D01*
X124314323Y-113032000D01*
X124374049Y-112842907D01*
X124249355Y-112541843D01*
X123933306Y-112183271D01*
X123504095Y-111972941D01*
X123315000Y-112032133D01*
X123065000Y-112032133D01*
X122875905Y-111972941D01*
X122446694Y-112183271D01*
X122130645Y-112541843D01*
X122005951Y-112842907D01*
X121836522Y-112842907D01*
X121805751Y-112688213D01*
X121540205Y-112290794D01*
X121142786Y-112025248D01*
X120673999Y-111932000D01*
X120626001Y-111932000D01*
X120157214Y-112025248D01*
X119759795Y-112290794D01*
X119494249Y-112688213D01*
X119401001Y-113157000D01*
X100455000Y-113157000D01*
X100455000Y-110617000D01*
X119401001Y-110617000D01*
X119494249Y-111085787D01*
X119759795Y-111483206D01*
X120157214Y-111748752D01*
X120626001Y-111842000D01*
X120673999Y-111842000D01*
X121142786Y-111748752D01*
X121540205Y-111483206D01*
X121805751Y-111085787D01*
X121836521Y-110931093D01*
X122005951Y-110931093D01*
X122130645Y-111232157D01*
X122446694Y-111590729D01*
X122875905Y-111801059D01*
X123065000Y-111741867D01*
X123065000Y-110742000D01*
X123315000Y-110742000D01*
X123315000Y-111741867D01*
X123504095Y-111801059D01*
X123933306Y-111590729D01*
X124249355Y-111232157D01*
X124374049Y-110931093D01*
X124314323Y-110742000D01*
X123315000Y-110742000D01*
X123065000Y-110742000D01*
X122065677Y-110742000D01*
X122005951Y-110931093D01*
X121836521Y-110931093D01*
X121898999Y-110617000D01*
X121836522Y-110302907D01*
X122005951Y-110302907D01*
X122065677Y-110492000D01*
X123065000Y-110492000D01*
X123065000Y-109492133D01*
X123315000Y-109492133D01*
X123315000Y-110492000D01*
X124314323Y-110492000D01*
X124374049Y-110302907D01*
X124249355Y-110001843D01*
X123933306Y-109643271D01*
X123504095Y-109432941D01*
X123315000Y-109492133D01*
X123065000Y-109492133D01*
X122875905Y-109432941D01*
X122446694Y-109643271D01*
X122130645Y-110001843D01*
X122005951Y-110302907D01*
X121836522Y-110302907D01*
X121805751Y-110148213D01*
X121540205Y-109750794D01*
X121142786Y-109485248D01*
X120673999Y-109392000D01*
X120626001Y-109392000D01*
X120157214Y-109485248D01*
X119759795Y-109750794D01*
X119494249Y-110148213D01*
X119401001Y-110617000D01*
X100455000Y-110617000D01*
X100455000Y-107227000D01*
X119417654Y-107227000D01*
X119417654Y-108927000D01*
X119443802Y-109065966D01*
X119525931Y-109193599D01*
X119651246Y-109279223D01*
X119800000Y-109309346D01*
X121500000Y-109309346D01*
X121638966Y-109283198D01*
X121766599Y-109201069D01*
X121852223Y-109075754D01*
X121882346Y-108927000D01*
X121882346Y-108391093D01*
X122005951Y-108391093D01*
X122130645Y-108692157D01*
X122446694Y-109050729D01*
X122875905Y-109261059D01*
X123065000Y-109201867D01*
X123065000Y-108202000D01*
X123315000Y-108202000D01*
X123315000Y-109201867D01*
X123504095Y-109261059D01*
X123933306Y-109050729D01*
X124249355Y-108692157D01*
X124374049Y-108391093D01*
X124314323Y-108202000D01*
X123315000Y-108202000D01*
X123065000Y-108202000D01*
X122065677Y-108202000D01*
X122005951Y-108391093D01*
X121882346Y-108391093D01*
X121882346Y-107762907D01*
X122005951Y-107762907D01*
X122065677Y-107952000D01*
X123065000Y-107952000D01*
X123065000Y-106952133D01*
X123315000Y-106952133D01*
X123315000Y-107952000D01*
X124314323Y-107952000D01*
X124374049Y-107762907D01*
X124249355Y-107461843D01*
X123933306Y-107103271D01*
X123504095Y-106892941D01*
X123315000Y-106952133D01*
X123065000Y-106952133D01*
X122875905Y-106892941D01*
X122446694Y-107103271D01*
X122130645Y-107461843D01*
X122005951Y-107762907D01*
X121882346Y-107762907D01*
X121882346Y-107227000D01*
X121856198Y-107088034D01*
X121774069Y-106960401D01*
X121648754Y-106874777D01*
X121500000Y-106844654D01*
X119800000Y-106844654D01*
X119661034Y-106870802D01*
X119533401Y-106952931D01*
X119447777Y-107078246D01*
X119417654Y-107227000D01*
X100455000Y-107227000D01*
X100455000Y-104391128D01*
X103024657Y-104391128D01*
X103324700Y-105117286D01*
X103879791Y-105673348D01*
X104605425Y-105974657D01*
X105391128Y-105975343D01*
X106117286Y-105675300D01*
X106673348Y-105120209D01*
X106974657Y-104394575D01*
X106975343Y-103608872D01*
X106948539Y-103544000D01*
X109130654Y-103544000D01*
X109130654Y-105244000D01*
X109156802Y-105382966D01*
X109238931Y-105510599D01*
X109364246Y-105596223D01*
X109513000Y-105626346D01*
X111213000Y-105626346D01*
X111351966Y-105600198D01*
X111479599Y-105518069D01*
X111565223Y-105392754D01*
X111595346Y-105244000D01*
X111595346Y-104370001D01*
X111678000Y-104370001D01*
X111678000Y-104417999D01*
X111771248Y-104886786D01*
X112036794Y-105284205D01*
X112434213Y-105549751D01*
X112903000Y-105642999D01*
X113371787Y-105549751D01*
X113769206Y-105284205D01*
X114034752Y-104886786D01*
X114128000Y-104417999D01*
X114128000Y-104370001D01*
X114218000Y-104370001D01*
X114218000Y-104417999D01*
X114311248Y-104886786D01*
X114576794Y-105284205D01*
X114974213Y-105549751D01*
X115443000Y-105642999D01*
X115911787Y-105549751D01*
X116309206Y-105284205D01*
X116574752Y-104886786D01*
X116668000Y-104417999D01*
X116668000Y-104370001D01*
X116758000Y-104370001D01*
X116758000Y-104417999D01*
X116851248Y-104886786D01*
X117116794Y-105284205D01*
X117514213Y-105549751D01*
X117983000Y-105642999D01*
X118451787Y-105549751D01*
X118849206Y-105284205D01*
X119114752Y-104886786D01*
X119208000Y-104417999D01*
X119208000Y-104370001D01*
X119114752Y-103901214D01*
X118849206Y-103503795D01*
X118451787Y-103238249D01*
X117983000Y-103145001D01*
X117514213Y-103238249D01*
X117116794Y-103503795D01*
X116851248Y-103901214D01*
X116758000Y-104370001D01*
X116668000Y-104370001D01*
X116574752Y-103901214D01*
X116309206Y-103503795D01*
X115911787Y-103238249D01*
X115443000Y-103145001D01*
X114974213Y-103238249D01*
X114576794Y-103503795D01*
X114311248Y-103901214D01*
X114218000Y-104370001D01*
X114128000Y-104370001D01*
X114034752Y-103901214D01*
X113769206Y-103503795D01*
X113371787Y-103238249D01*
X112903000Y-103145001D01*
X112434213Y-103238249D01*
X112036794Y-103503795D01*
X111771248Y-103901214D01*
X111678000Y-104370001D01*
X111595346Y-104370001D01*
X111595346Y-103544000D01*
X111569198Y-103405034D01*
X111487069Y-103277401D01*
X111361754Y-103191777D01*
X111213000Y-103161654D01*
X109513000Y-103161654D01*
X109374034Y-103187802D01*
X109246401Y-103269931D01*
X109160777Y-103395246D01*
X109130654Y-103544000D01*
X106948539Y-103544000D01*
X106675300Y-102882714D01*
X106120209Y-102326652D01*
X105738361Y-102168095D01*
X109178941Y-102168095D01*
X109389271Y-102597306D01*
X109747843Y-102913355D01*
X110048907Y-103038049D01*
X110238000Y-102978323D01*
X110238000Y-101979000D01*
X110488000Y-101979000D01*
X110488000Y-102978323D01*
X110677093Y-103038049D01*
X110978157Y-102913355D01*
X111336729Y-102597306D01*
X111547059Y-102168095D01*
X111718941Y-102168095D01*
X111929271Y-102597306D01*
X112287843Y-102913355D01*
X112588907Y-103038049D01*
X112778000Y-102978323D01*
X112778000Y-101979000D01*
X113028000Y-101979000D01*
X113028000Y-102978323D01*
X113217093Y-103038049D01*
X113518157Y-102913355D01*
X113876729Y-102597306D01*
X114087059Y-102168095D01*
X114258941Y-102168095D01*
X114469271Y-102597306D01*
X114827843Y-102913355D01*
X115128907Y-103038049D01*
X115318000Y-102978323D01*
X115318000Y-101979000D01*
X115568000Y-101979000D01*
X115568000Y-102978323D01*
X115757093Y-103038049D01*
X116058157Y-102913355D01*
X116416729Y-102597306D01*
X116627059Y-102168095D01*
X116798941Y-102168095D01*
X117009271Y-102597306D01*
X117367843Y-102913355D01*
X117668907Y-103038049D01*
X117858000Y-102978323D01*
X117858000Y-101979000D01*
X118108000Y-101979000D01*
X118108000Y-102978323D01*
X118297093Y-103038049D01*
X118598157Y-102913355D01*
X118956729Y-102597306D01*
X119167059Y-102168095D01*
X119107867Y-101979000D01*
X118108000Y-101979000D01*
X117858000Y-101979000D01*
X116858133Y-101979000D01*
X116798941Y-102168095D01*
X116627059Y-102168095D01*
X116567867Y-101979000D01*
X115568000Y-101979000D01*
X115318000Y-101979000D01*
X114318133Y-101979000D01*
X114258941Y-102168095D01*
X114087059Y-102168095D01*
X114027867Y-101979000D01*
X113028000Y-101979000D01*
X112778000Y-101979000D01*
X111778133Y-101979000D01*
X111718941Y-102168095D01*
X111547059Y-102168095D01*
X111487867Y-101979000D01*
X110488000Y-101979000D01*
X110238000Y-101979000D01*
X109238133Y-101979000D01*
X109178941Y-102168095D01*
X105738361Y-102168095D01*
X105394575Y-102025343D01*
X104608872Y-102024657D01*
X103882714Y-102324700D01*
X103326652Y-102879791D01*
X103025343Y-103605425D01*
X103024657Y-104391128D01*
X100455000Y-104391128D01*
X100455000Y-101539905D01*
X109178941Y-101539905D01*
X109238133Y-101729000D01*
X110238000Y-101729000D01*
X110238000Y-100729677D01*
X110488000Y-100729677D01*
X110488000Y-101729000D01*
X111487867Y-101729000D01*
X111547059Y-101539905D01*
X111718941Y-101539905D01*
X111778133Y-101729000D01*
X112778000Y-101729000D01*
X112778000Y-100729677D01*
X113028000Y-100729677D01*
X113028000Y-101729000D01*
X114027867Y-101729000D01*
X114087059Y-101539905D01*
X114258941Y-101539905D01*
X114318133Y-101729000D01*
X115318000Y-101729000D01*
X115318000Y-100729677D01*
X115568000Y-100729677D01*
X115568000Y-101729000D01*
X116567867Y-101729000D01*
X116627059Y-101539905D01*
X116798941Y-101539905D01*
X116858133Y-101729000D01*
X117858000Y-101729000D01*
X117858000Y-100729677D01*
X118108000Y-100729677D01*
X118108000Y-101729000D01*
X119107867Y-101729000D01*
X119167059Y-101539905D01*
X118956729Y-101110694D01*
X118598157Y-100794645D01*
X118297093Y-100669951D01*
X118108000Y-100729677D01*
X117858000Y-100729677D01*
X117668907Y-100669951D01*
X117367843Y-100794645D01*
X117009271Y-101110694D01*
X116798941Y-101539905D01*
X116627059Y-101539905D01*
X116416729Y-101110694D01*
X116058157Y-100794645D01*
X115757093Y-100669951D01*
X115568000Y-100729677D01*
X115318000Y-100729677D01*
X115128907Y-100669951D01*
X114827843Y-100794645D01*
X114469271Y-101110694D01*
X114258941Y-101539905D01*
X114087059Y-101539905D01*
X113876729Y-101110694D01*
X113518157Y-100794645D01*
X113217093Y-100669951D01*
X113028000Y-100729677D01*
X112778000Y-100729677D01*
X112588907Y-100669951D01*
X112287843Y-100794645D01*
X111929271Y-101110694D01*
X111718941Y-101539905D01*
X111547059Y-101539905D01*
X111336729Y-101110694D01*
X110978157Y-100794645D01*
X110677093Y-100669951D01*
X110488000Y-100729677D01*
X110238000Y-100729677D01*
X110048907Y-100669951D01*
X109747843Y-100794645D01*
X109389271Y-101110694D01*
X109178941Y-101539905D01*
X100455000Y-101539905D01*
X100455000Y-100455000D01*
X124550000Y-100455000D01*
X124550000Y-149481000D01*
M02*
